<?xml version="1.0" encoding="UTF-8" standalone="no"?>
<!-- Created with Inkscape (http://www.inkscape.org/) -->

<svg
   width="113.60489mm"
   height="97.775208mm"
   viewBox="0 0 113.60489 97.775208"
   version="1.1"
   id="svg1"
   xml:space="preserve"
   xmlns="http://www.w3.org/2000/svg"
   xmlns:svg="http://www.w3.org/2000/svg"><defs
     id="defs1" /><g
     id="layer2"
     transform="translate(280.21007,-153.65261)"><path
       style="opacity:1;fill:none;stroke:#000000;stroke-width:3;stroke-linecap:round;stroke-linejoin:round;stroke-dasharray:none;stroke-opacity:1"
       d="m -278.07907,241.54812 49.62269,-83.5452 c 0,0 1.11476,-1.51465 1.93814,-2.00966 0.95814,-0.57603 2.07498,-0.88615 3.19179,-0.83513 1.09587,0.0501 2.32737,0.40235 3.2577,0.98366 0.75864,0.47404 1.72375,1.96235 1.72375,1.96235 0,0 0.29207,0.23315 49.81914,83.73326 0.45287,0.76352 0.44123,1.77711 0.37658,2.66248 -0.0677,0.92751 -0.37267,1.79288 -0.86968,2.58657 -0.49719,0.79397 -1.11232,1.46954 -1.93409,1.93468 -0.85155,0.48199 -1.78394,0.89686 -2.88548,0.89661 -99.66424,-0.0228 -66.39932,0.0666 -99.68602,-0.0574 -1.10237,-0.004 -1.63822,-0.33176 -2.51493,-0.8752 -0.94264,-0.58431 -1.14116,-0.93505 -1.71217,-1.73411 -0.6639,-0.92905 -0.91379,-1.98801 -0.949,-2.70746 -0.10046,-2.05293 0.62158,-2.99548 0.62158,-2.99548 z"
       id="path12" /><path
       style="opacity:1;fill:none;stroke:#000000;stroke-width:3;stroke-linecap:round;stroke-linejoin:round;stroke-dasharray:none;stroke-opacity:1"
       d="m -244.00064,227.52185 10.24357,0.0954 -0.008,-23.99507 c 0,0 0.44444,-3.81256 2.76609,-6.27688 1.87147,-1.98648 4.36104,-3.48389 7.50148,-3.49354 3.78031,-0.0116 6.33882,1.65456 7.96451,3.46173 2.5799,2.8679 2.55304,6.30869 2.55304,6.30869 l 0.17996,23.8444 10.25759,-0.09 -0.0569,-24.23739 c -0.009,-3.99557 -1.80302,-9.25928 -5.09085,-13.0636 -3.44292,-3.98379 -8.97512,-7.11148 -15.18747,-7.14858 -5.88689,-0.0351 -10.15756,1.99234 -13.71199,4.90352 -5.08809,4.16729 -7.33277,10.71804 -7.34307,14.53192 z"
       id="path13" /><path
       style="opacity:1;fill:none;stroke:#000000;stroke-width:3;stroke-linecap:round;stroke-linejoin:round;stroke-dasharray:none;stroke-opacity:1"
       d="m -243.93275,219.99836 10.01015,3e-5"
       id="path14" /><path
       style="opacity:1;fill:none;stroke:#000000;stroke-width:3;stroke-linecap:round;stroke-linejoin:round;stroke-dasharray:none;stroke-opacity:1"
       d="m -212.72912,219.82327 9.83002,0.0318"
       id="path15" /><path
       style="opacity:1;fill:none;stroke:#000000;stroke-width:3;stroke-linecap:round;stroke-linejoin:round;stroke-dasharray:none;stroke-opacity:1"
       d="m -244.45944,236.47768 1.92409,-1.75732"
       id="path16" /><path
       style="opacity:1;fill:none;stroke:#000000;stroke-width:3;stroke-linecap:round;stroke-linejoin:round;stroke-dasharray:none;stroke-opacity:1"
       d="m -238.0364,241.79641 0.0159,-2.50256"
       id="path17" /><path
       style="opacity:1;fill:none;stroke:#000000;stroke-width:3;stroke-linecap:round;stroke-linejoin:round;stroke-dasharray:none;stroke-opacity:1"
       d="m -231.59294,236.53265 -1.88363,-1.84909"
       id="path18" /><path
       style="opacity:1;fill:none;stroke:#000000;stroke-width:3;stroke-linecap:round;stroke-linejoin:round;stroke-dasharray:none;stroke-opacity:1"
       d="m -214.25017,235.65968 1.97135,-1.99224"
       id="path19" /><path
       style="opacity:1;fill:none;stroke:#000000;stroke-width:3;stroke-linecap:round;stroke-linejoin:round;stroke-dasharray:none;stroke-opacity:1"
       d="m -207.80077,240.92891 0.0105,-2.58031"
       id="path20" /><path
       style="opacity:1;fill:none;stroke:#000000;stroke-width:3;stroke-linecap:round;stroke-linejoin:round;stroke-dasharray:none;stroke-opacity:1"
       d="m -201.37593,235.57469 -1.78867,-1.77774"
       id="path21" /></g></svg>
