<svg xmlns="http://www.w3.org/2000/svg" width="800" height="600"><style></style><rect class="boundary" x="0" y="0" fill="#000" width="800" height="600" data-type="pcb_background" data-pcb-layer="global"/><rect class="pcb-boundary" fill="none" stroke="#fff" stroke-width="0.3" x="114.01724678851525" y="14.017246788515251" width="571.9655064229696" height="571.9655064229696" data-type="pcb_boundary" data-pcb-layer="global"/><path class="pcb-board" d="M 680.3449357703046 300 L 680.2605011170367 293.1199908660198 L 680.0072480175111 286.2441259922818 L 679.5853290219252 279.37654714268075 L 678.9949982785051 272.52139108992037 L 678.2366113804171 265.6827871236761 L 677.3106251515705 258.8648545632653 L 676.2175973714449 252.07170027632338 L 674.9581864391039 245.30741620498048 L 673.5331509766007 238.57607690102824 L 671.9433493720126 231.88173707156244 L 670.1897392623795 225.22842913657877 L 668.2733769568598 218.62016079999415 L 666.195416800449 212.06091263555538 L 663.9571104786455 205.55463568909073 L 661.5598062634816 199.10524909854732 L 659.0049482013758 192.7166377332492 L 656.2940752432921 186.39264985379728 L 653.4288203177348 180.13709479402098 L 650.410909347132 173.95374066637808 L 647.2421602082054 167.84631209218452 L 643.9244816369493 161.81848795804194 L 640.4598720788789 155.87389919981393 L 636.850418485242 150.01612661548592 L 633.0982950559171 144.24869870822647 L 629.2057619297573 138.5750895609489 L 625.1751638231664 132.99871674365366 L 621.00892861773 127.52293925481183 L 616.7095658977505 122.15105549803019 L 612.2796654385669 116.88630129521621 L 607.7218956465709 111.73184793743974 L 603.0390019518595 106.69080027466615 L 598.2338051544896 101.76619484551048 L 593.3091997253339 96.96099804814054 L 588.2681520625603 92.27810435342906 L 583.1136987047838 87.72033456143313 L 577.8489445019698 83.29043410224949 L 572.4770607451882 78.99107138226998 L 567.0012832563464 74.82483617683371 L 561.4249104390511 70.79423807024278 L 555.7513012917735 66.9017049440829 L 549.9838733845141 63.14958151475807 L 544.1261008001861 59.54012792112107 L 538.1815120419581 56.07551836305072 L 532.1536879078155 52.757839791794595 L 526.046259333622 49.58909065286804 L 519.862905205979 46.57117968226521 L 513.6073501462027 43.705924756707816 L 507.2833622667508 40.995051798624274 L 500.8947509014527 38.44019373651838 L 494.44536431090927 36.04288952135454 L 487.9390873644446 33.80458319955096 L 481.37983920000585 31.726623043140137 L 474.77157086342123 29.810260737620524 L 468.1182629284376 28.056650627987494 L 461.4239230989717 26.466849023399277 L 454.6925837950195 25.041813560896173 L 447.9282997236767 23.782402628555133 L 441.1351454367347 22.689374848429395 L 434.3172128763239 21.763388619582827 L 427.47860891007963 21.005001721494864 L 420.62345285731925 20.414670978074867 L 413.75587400771826 19.99275198248887 L 406.8800091339802 19.739498882963233 L 400 19.655064229695427 L 393.1199908660198 19.739498882963233 L 386.2441259922818 19.99275198248887 L 379.37654714268075 20.414670978074867 L 372.52139108992037 21.005001721494807 L 365.6827871236761 21.763388619582827 L 358.86485456326534 22.689374848429395 L 352.0717002763234 23.782402628555133 L 345.3074162049805 25.041813560896173 L 338.5760769010283 26.466849023399277 L 331.88173707156244 28.056650627987494 L 325.2284291365788 29.810260737620524 L 318.6201607999942 31.726623043140137 L 312.06091263555544 33.80458319955096 L 305.5546356890908 36.04288952135454 L 299.1052490985473 38.44019373651838 L 292.71663773324923 40.995051798624274 L 286.3926498537973 43.705924756707816 L 280.13709479402104 46.57117968226521 L 273.95374066637805 49.589090652868094 L 267.84631209218446 52.75783979179457 L 261.81848795804194 56.07551836305072 L 255.87389919981396 59.54012792112107 L 250.01612661548594 63.149581514757955 L 244.24869870822653 66.9017049440829 L 238.5750895609489 70.79423807024278 L 232.99871674365366 74.82483617683366 L 227.52293925481186 78.99107138226995 L 222.15105549803025 83.29043410224943 L 216.88630129521627 87.7203345614331 L 211.73184793743974 92.27810435342909 L 206.69080027466612 96.96099804814054 L 201.7661948455105 101.76619484551048 L 196.9609980481406 106.69080027466609 L 192.27810435342914 111.73184793743971 L 187.7203345614331 116.88630129521624 L 183.29043410224946 122.15105549803019 L 178.99107138226998 127.52293925481183 L 174.8248361768337 132.9987167436536 L 170.79423807024278 138.57508956094887 L 166.9017049440829 144.24869870822647 L 163.149581514758 150.01612661548592 L 159.5401279211211 155.8738991998139 L 156.07551836305072 161.8184879580419 L 152.7578397917946 167.84631209218446 L 149.5890906528681 173.953740666378 L 146.5711796822652 180.137094794021 L 143.70592475670782 186.39264985379725 L 140.99505179862427 192.71663773324917 L 138.44019373651838 199.1052490985473 L 136.0428895213546 205.55463568909067 L 133.80458319955096 212.06091263555544 L 131.7266230431402 218.62016079999415 L 129.81026073762052 225.22842913657877 L 128.0566506279875 231.88173707156238 L 126.46684902339933 238.57607690102816 L 125.04181356089617 245.30741620498037 L 123.78240262855513 252.07170027632338 L 122.6893748484294 258.8648545632653 L 121.76338861958283 265.68278712367606 L 121.00500172149486 272.5213910899203 L 120.41467097807487 279.37654714268064 L 119.99275198248887 286.2441259922818 L 119.73949888296323 293.11999086601975 L 119.65506422969543 299.99999999999994 L 119.73949888296323 306.88000913398014 L 119.99275198248887 313.75587400771815 L 120.41467097807487 320.62345285731925 L 121.0050017214948 327.4786089100796 L 121.76338861958283 334.3172128763239 L 122.6893748484294 341.13514543673466 L 123.78240262855513 347.92829972367656 L 125.04181356089617 354.6925837950196 L 126.46684902339928 361.4239230989717 L 128.0566506279875 368.11826292843756 L 129.81026073762052 374.7715708634212 L 131.72662304314014 381.3798392000058 L 133.8045831995509 387.9390873644445 L 136.04288952135454 394.44536431090927 L 138.44019373651838 400.89475090145265 L 140.99505179862427 407.28336226675077 L 143.70592475670782 413.60735014620263 L 146.5711796822652 419.8629052059789 L 149.58909065286804 426.04625933362195 L 152.75783979179457 432.1536879078155 L 156.07551836305072 438.18151204195806 L 159.54012792112107 444.126100800186 L 163.14958151475795 449.983873384514 L 166.90170494408284 455.7513012917735 L 170.79423807024278 461.42491043905113 L 174.82483617683366 467.0012832563463 L 178.99107138226995 472.47706074518817 L 183.29043410224943 477.84894450196975 L 187.72033456143308 483.1136987047837 L 192.27810435342906 488.26815206256026 L 196.9609980481405 493.3091997253339 L 201.76619484551046 498.23380515448946 L 206.6908002746661 503.0390019518594 L 211.73184793743968 507.72189564657083 L 216.8863012952161 512.2796654385668 L 222.1510554980301 516.7095658977505 L 227.52293925481172 521.0089286177299 L 232.99871674365372 525.1751638231664 L 238.5750895609489 529.2057619297573 L 244.24869870822647 533.0982950559171 L 250.0161266154859 536.850418485242 L 255.8738991998139 540.4598720788789 L 261.81848795804194 543.9244816369493 L 267.84631209218446 547.2421602082054 L 273.953740666378 550.4109093471319 L 280.13709479402087 553.4288203177348 L 286.39264985379714 556.2940752432921 L 292.71663773324906 559.0049482013756 L 299.10524909854735 561.5598062634816 L 305.5546356890908 563.9571104786455 L 312.0609126355554 566.195416800449 L 318.6201607999941 568.2733769568598 L 325.22842913657877 570.1897392623795 L 331.8817370715624 571.9433493720126 L 338.57607690102816 573.5331509766006 L 345.30741620498037 574.9581864391038 L 352.07170027632327 576.2175973714449 L 358.8648545632651 577.3106251515705 L 365.6827871236762 578.2366113804171 L 372.5213910899204 578.9949982785051 L 379.37654714268075 579.5853290219252 L 386.2441259922818 580.0072480175111 L 393.11999086601975 580.2605011170367 L 399.99999999999994 580.3449357703046 L 406.88000913398014 580.2605011170367 L 413.75587400771815 580.0072480175111 L 420.62345285731914 579.5853290219252 L 427.47860891007946 578.9949982785051 L 434.3172128763237 578.2366113804171 L 441.1351454367348 577.3106251515705 L 447.9282997236766 576.2175973714449 L 454.6925837950195 574.9581864391039 L 461.4239230989717 573.5331509766007 L 468.11826292843756 571.9433493720126 L 474.7715708634212 570.1897392623795 L 481.3798392000058 568.2733769568599 L 487.9390873644445 566.195416800449 L 494.44536431090916 563.9571104786455 L 500.89475090145254 561.5598062634817 L 507.2833622667509 559.0049482013757 L 513.6073501462027 556.2940752432921 L 519.862905205979 553.4288203177348 L 526.046259333622 550.410909347132 L 532.1536879078155 547.2421602082054 L 538.1815120419581 543.9244816369493 L 544.126100800186 540.4598720788789 L 549.983873384514 536.850418485242 L 555.7513012917734 533.0982950559171 L 561.424910439051 529.2057619297573 L 567.0012832563461 525.1751638231664 L 572.4770607451883 521.0089286177299 L 577.8489445019699 516.7095658977505 L 583.1136987047838 512.2796654385669 L 588.2681520625603 507.72189564657094 L 593.3091997253339 503.0390019518595 L 598.2338051544895 498.2338051544896 L 603.0390019518594 493.30919972533394 L 607.7218956465708 488.2681520625603 L 612.2796654385668 483.1136987047839 L 616.7095658977504 477.84894450196987 L 621.0089286177299 472.47706074518834 L 625.1751638231664 467.0012832563463 L 629.2057619297573 461.42491043905113 L 633.0982950559171 455.75130129177353 L 636.8504184852419 449.98387338451414 L 640.4598720788789 444.1261008001861 L 643.9244816369493 438.1815120419581 L 647.2421602082054 432.15368790781554 L 650.4109093471319 426.04625933362206 L 653.4288203177348 419.86290520597913 L 656.2940752432921 413.60735014620286 L 659.0049482013756 407.283362266751 L 661.5598062634816 400.89475090145265 L 663.9571104786455 394.44536431090927 L 666.195416800449 387.9390873644446 L 668.2733769568598 381.3798392000059 L 670.1897392623795 374.7715708634213 L 671.9433493720126 368.1182629284376 L 673.5331509766006 361.42392309897184 L 674.9581864391038 354.69258379501963 L 676.2175973714449 347.9282997236768 L 677.3106251515705 341.1351454367349 L 678.2366113804171 334.3172128763238 L 678.9949982785051 327.4786089100796 L 679.5853290219252 320.62345285731925 L 680.0072480175111 313.75587400771826 L 680.2605011170367 306.88000913398025 Z" fill="none" stroke="rgba(255, 255, 255, 0.5)" stroke-width="1.4017246788515232" data-type="pcb_board" data-pcb-layer="board"/><polygon class="pcb-pad" fill="rgb(77, 127, 196)" points="685.9827532114848,271.96550642296955 685.9827532114848,328.03449357703045 644.1316185951699,323.93188476087965 644.1316185951699,276.06811523912035" data-type="pcb_smtpad" data-pcb-layer="bottom"/><polygon class="pcb-pad" fill="rgb(77, 127, 196)" points="653.4852761166421,164.658643583673 674.9419485699923,216.45963322394817 634.7065414621886,228.68505275215088 616.3898698556701,184.4646957421599" data-type="pcb_smtpad" data-pcb-layer="bottom"/><polygon class="pcb-pad" fill="rgb(77, 127, 196)" points="582.3969635827908,77.95627538631126 622.0437246136887,117.60303641720915 589.5495210116856,144.29527499030053 555.7047250096995,110.4504789883145" data-type="pcb_smtpad" data-pcb-layer="bottom"/><polygon class="pcb-pad" fill="rgb(77, 127, 196)" points="483.5403667760518,25.05805143000765 535.341356416327,46.51472388335782 515.5353042578402,83.61013014432987 471.31494724784915,65.29345853781143" data-type="pcb_smtpad" data-pcb-layer="bottom"/><polygon class="pcb-pad" fill="rgb(77, 127, 196)" points="371.96550642296955,14.017246788515251 428.0344935770305,14.017246788515251 423.93188476087965,55.868381404830075 376.06811523912035,55.868381404830075" data-type="pcb_smtpad" data-pcb-layer="bottom"/><polygon class="pcb-pad" fill="rgb(77, 127, 196)" points="264.6586435836731,46.51472388335782 316.45963322394823,25.05805143000765 328.6850527521509,65.29345853781143 284.46469574215996,83.61013014432987" data-type="pcb_smtpad" data-pcb-layer="bottom"/><polygon class="pcb-pad" fill="rgb(77, 127, 196)" points="177.9562753863113,117.60303641720915 217.60303641720918,77.95627538631126 244.29527499030053,110.4504789883145 210.45047898831453,144.29527499030053" data-type="pcb_smtpad" data-pcb-layer="bottom"/><polygon class="pcb-pad" fill="rgb(77, 127, 196)" points="125.05805143000765,216.45963322394815 146.51472388335782,164.658643583673 183.61013014432987,184.4646957421599 165.29345853781143,228.68505275215085" data-type="pcb_smtpad" data-pcb-layer="bottom"/><polygon class="pcb-pad" fill="rgb(77, 127, 196)" points="114.01724678851525,328.03449357703045 114.01724678851525,271.9655064229695 155.86838140483007,276.0681152391203 155.86838140483007,323.93188476087965" data-type="pcb_smtpad" data-pcb-layer="bottom"/><polygon class="pcb-pad" fill="rgb(77, 127, 196)" points="146.51472388335776,435.3413564163268 125.0580514300076,383.54036677605166 165.29345853781138,371.314947247849 183.6101301443298,415.53530425784" data-type="pcb_smtpad" data-pcb-layer="bottom"/><polygon class="pcb-pad" fill="rgb(77, 127, 196)" points="217.60303641720913,522.0437246136887 177.9562753863112,482.3969635827908 210.45047898831447,455.7047250096995 244.29527499030047,489.5495210116855" data-type="pcb_smtpad" data-pcb-layer="bottom"/><polygon class="pcb-pad" fill="rgb(77, 127, 196)" points="316.45963322394823,574.9419485699923 264.6586435836731,553.4852761166421 284.46469574215996,516.3898698556702 328.68505275215097,534.7065414621886" data-type="pcb_smtpad" data-pcb-layer="bottom"/><polygon class="pcb-pad" fill="rgb(77, 127, 196)" points="428.0344935770304,585.9827532114848 371.9655064229695,585.9827532114848 376.0681152391203,544.1316185951699 423.9318847608796,544.1316185951699" data-type="pcb_smtpad" data-pcb-layer="bottom"/><polygon class="pcb-pad" fill="rgb(77, 127, 196)" points="535.341356416327,553.4852761166421 483.5403667760519,574.9419485699923 471.31494724784915,534.7065414621885 515.5353042578402,516.3898698556701" data-type="pcb_smtpad" data-pcb-layer="bottom"/><polygon class="pcb-pad" fill="rgb(77, 127, 196)" points="622.0437246136887,482.3969635827909 582.3969635827907,522.0437246136888 555.7047250096994,489.54952101168556 589.5495210116854,455.70472500969953" data-type="pcb_smtpad" data-pcb-layer="bottom"/><polygon class="pcb-pad" fill="rgb(77, 127, 196)" points="674.9419485699923,383.54036677605177 653.4852761166421,435.3413564163269 616.3898698556702,415.53530425784004 634.7065414621886,371.3149472478491" data-type="pcb_smtpad" data-pcb-layer="bottom"/><text x="0" y="0" dx="0" dy="0" fill="#5da9e9" font-family="Arial, sans-serif" font-size="5.606898715406093" text-anchor="middle" dominant-baseline="central" transform="matrix(-0.9952295494196666,0.09756097560975609,0.09756097560975609,0.9952295494196666,663.9631568856871,262.85650826669433)" class="pcb-silkscreen-text pcb-silkscreen-bottom" data-pcb-silkscreen-text-id="pcb_silkscreen_text_17" stroke="none" data-type="pcb_silkscreen_text" data-pcb-layer="bottom">GND</text><text x="0" y="0" dx="0" dy="0" fill="#5da9e9" font-family="Arial, sans-serif" font-size="5.606898715406093" text-anchor="middle" dominant-baseline="central" transform="matrix(-0.8821372418480319,0.47099244850076627,0.47099244850076627,0.8821372418480319,629.6559590772263,164.6695613266573)" class="pcb-silkscreen-text pcb-silkscreen-bottom" data-pcb-silkscreen-text-id="pcb_silkscreen_text_18" stroke="none" data-type="pcb_silkscreen_text" data-pcb-layer="bottom">EXTRA</text><text x="0" y="0" dx="0" dy="0" fill="#5da9e9" font-family="Arial, sans-serif" font-size="5.606898715406093" text-anchor="middle" dominant-baseline="central" transform="matrix(-0.6347475357990446,0.7727195906647123,0.7727195906647123,0.6347475357990446,560.385723335711,87.08544690115522)" class="pcb-silkscreen-text pcb-silkscreen-bottom" data-pcb-silkscreen-text-id="pcb_silkscreen_text_19" stroke="none" data-type="pcb_silkscreen_text" data-pcb-layer="bottom">PWM</text><text x="0" y="0" dx="0" dy="0" fill="#5da9e9" font-family="Arial, sans-serif" font-size="5.606898715406093" text-anchor="middle" dominant-baseline="central" transform="matrix(-0.2907232714253933,0.9568071798704884,0.9568071798704884,0.2907232714253933,466.6982151165362,41.91564310972217)" class="pcb-silkscreen-text pcb-silkscreen-bottom" data-pcb-silkscreen-text-id="pcb_silkscreen_text_20" stroke="none" data-type="pcb_silkscreen_text" data-pcb-layer="bottom">EXTRA</text><text x="0" y="0" dx="0" dy="0" fill="#5da9e9" font-family="Arial, sans-serif" font-size="5.606898715406093" text-anchor="middle" dominant-baseline="central" transform="matrix(0.09756097560975603,0.9952295494196666,0.9952295494196666,-0.09756097560975603,362.85650826669433,36.03684311431289)" class="pcb-silkscreen-text pcb-silkscreen-bottom" data-pcb-silkscreen-text-id="pcb_silkscreen_text_21" stroke="none" data-type="pcb_silkscreen_text" data-pcb-layer="bottom">DATA</text><text x="0" y="0" dx="0" dy="0" fill="#5da9e9" font-family="Arial, sans-serif" font-size="5.606898715406093" text-anchor="middle" dominant-baseline="central" transform="matrix(0.4709924485007662,0.8821372418480319,0.8821372418480319,-0.4709924485007662,264.6695613266573,70.34404092277364)" class="pcb-silkscreen-text pcb-silkscreen-bottom" data-pcb-silkscreen-text-id="pcb_silkscreen_text_22" stroke="none" data-type="pcb_silkscreen_text" data-pcb-layer="bottom">EXTRA</text><text x="0" y="0" dx="0" dy="0" fill="#5da9e9" font-family="Arial, sans-serif" font-size="5.606898715406093" text-anchor="middle" dominant-baseline="central" transform="matrix(0.7727195906647123,0.6347475357990446,0.6347475357990446,-0.7727195906647123,187.08544690115522,139.61427666428904)" class="pcb-silkscreen-text pcb-silkscreen-bottom" data-pcb-silkscreen-text-id="pcb_silkscreen_text_23" stroke="none" data-type="pcb_silkscreen_text" data-pcb-layer="bottom">ADC</text><text x="0" y="0" dx="0" dy="0" fill="#5da9e9" font-family="Arial, sans-serif" font-size="5.606898715406093" text-anchor="middle" dominant-baseline="central" transform="matrix(0.9568071798704884,0.29072327142539334,0.29072327142539334,-0.9568071798704884,141.91564310972217,233.30178488346382)" class="pcb-silkscreen-text pcb-silkscreen-bottom" data-pcb-silkscreen-text-id="pcb_silkscreen_text_24" stroke="none" data-type="pcb_silkscreen_text" data-pcb-layer="bottom">EXTRA</text><text x="0" y="0" dx="0" dy="0" fill="#5da9e9" font-family="Arial, sans-serif" font-size="5.606898715406093" text-anchor="middle" dominant-baseline="central" transform="matrix(0.9952295494196666,-0.09756097560975642,-0.09756097560975642,-0.9952295494196666,136.0368431143129,337.1434917333058)" class="pcb-silkscreen-text pcb-silkscreen-bottom" data-pcb-silkscreen-text-id="pcb_silkscreen_text_25" stroke="none" data-type="pcb_silkscreen_text" data-pcb-layer="bottom">VCC</text><text x="0" y="0" dx="0" dy="0" fill="#5da9e9" font-family="Arial, sans-serif" font-size="4.765863908095179" text-anchor="middle" dominant-baseline="central" transform="matrix(0.9952295494196666,0.09756097560975623,0.09756097560975623,-0.9952295494196666,136.0368431143129,262.8565082666943)" class="pcb-silkscreen-text pcb-silkscreen-bottom" data-pcb-silkscreen-text-id="pcb_silkscreen_text_26" stroke="none" data-type="pcb_silkscreen_text" data-pcb-layer="bottom">5V</text><text x="0" y="0" dx="0" dy="0" fill="#5da9e9" font-family="Arial, sans-serif" font-size="5.606898715406093" text-anchor="middle" dominant-baseline="central" transform="matrix(0.8821372418480319,-0.47099244850076616,-0.47099244850076616,-0.8821372418480319,170.34404092277364,435.33043867334266)" class="pcb-silkscreen-text pcb-silkscreen-bottom" data-pcb-silkscreen-text-id="pcb_silkscreen_text_27" stroke="none" data-type="pcb_silkscreen_text" data-pcb-layer="bottom">EXTRA</text><text x="0" y="0" dx="0" dy="0" fill="#5da9e9" font-family="Arial, sans-serif" font-size="5.606898715406093" text-anchor="middle" dominant-baseline="central" transform="matrix(0.6347475357990443,-0.7727195906647125,-0.7727195906647125,-0.6347475357990443,239.6142766642891,512.9145530988449)" class="pcb-silkscreen-text pcb-silkscreen-bottom" data-pcb-silkscreen-text-id="pcb_silkscreen_text_28" stroke="none" data-type="pcb_silkscreen_text" data-pcb-layer="bottom">MISO</text><text x="0" y="0" dx="0" dy="0" fill="#5da9e9" font-family="Arial, sans-serif" font-size="5.606898715406093" text-anchor="middle" dominant-baseline="central" transform="matrix(0.2907232714253934,-0.9568071798704884,-0.9568071798704884,-0.2907232714253934,333.3017848834638,558.0843568902778)" class="pcb-silkscreen-text pcb-silkscreen-bottom" data-pcb-silkscreen-text-id="pcb_silkscreen_text_29" stroke="none" data-type="pcb_silkscreen_text" data-pcb-layer="bottom">EXTRA</text><text x="0" y="0" dx="0" dy="0" fill="#5da9e9" font-family="Arial, sans-serif" font-size="5.606898715406093" text-anchor="middle" dominant-baseline="central" transform="matrix(-0.09756097560975635,-0.9952295494196666,-0.9952295494196666,0.09756097560975635,437.1434917333057,563.9631568856871)" class="pcb-silkscreen-text pcb-silkscreen-bottom" data-pcb-silkscreen-text-id="pcb_silkscreen_text_30" stroke="none" data-type="pcb_silkscreen_text" data-pcb-layer="bottom">RST</text><text x="0" y="0" dx="0" dy="0" fill="#5da9e9" font-family="Arial, sans-serif" font-size="5.606898715406093" text-anchor="middle" dominant-baseline="central" transform="matrix(-0.4709924485007661,-0.882137241848032,-0.882137241848032,0.4709924485007661,535.3304386733427,529.6559590772263)" class="pcb-silkscreen-text pcb-silkscreen-bottom" data-pcb-silkscreen-text-id="pcb_silkscreen_text_31" stroke="none" data-type="pcb_silkscreen_text" data-pcb-layer="bottom">EXTRA</text><text x="0" y="0" dx="0" dy="0" fill="#5da9e9" font-family="Arial, sans-serif" font-size="5.606898715406093" text-anchor="middle" dominant-baseline="central" transform="matrix(-0.772719590664712,-0.6347475357990451,-0.6347475357990451,0.772719590664712,612.9145530988447,460.3857233357111)" class="pcb-silkscreen-text pcb-silkscreen-bottom" data-pcb-silkscreen-text-id="pcb_silkscreen_text_32" stroke="none" data-type="pcb_silkscreen_text" data-pcb-layer="bottom">SCK</text><text x="0" y="0" dx="0" dy="0" fill="#5da9e9" font-family="Arial, sans-serif" font-size="5.606898715406093" text-anchor="middle" dominant-baseline="central" transform="matrix(-0.9568071798704884,-0.29072327142539345,-0.29072327142539345,0.9568071798704884,658.0843568902778,366.6982151165362)" class="pcb-silkscreen-text pcb-silkscreen-bottom" data-pcb-silkscreen-text-id="pcb_silkscreen_text_33" stroke="none" data-type="pcb_silkscreen_text" data-pcb-layer="bottom">EXTRA</text><text x="0" y="0" dx="0" dy="0" fill="#5da9e9" font-family="Arial, sans-serif" font-size="16.820696146218275" text-anchor="middle" dominant-baseline="central" transform="matrix(-0.9335804264972017,0.35836794954530027,0.35836794954530027,0.9335804264972017,318.11968856510845,86.69449606724115)" class="pcb-silkscreen-text pcb-silkscreen-bottom" data-pcb-silkscreen-text-id="pcb_silkscreen_text_37" stroke="none" data-type="pcb_silkscreen_text" data-pcb-layer="bottom">B</text><text x="0" y="0" dx="0" dy="0" fill="#5da9e9" font-family="Arial, sans-serif" font-size="16.820696146218275" text-anchor="middle" dominant-baseline="central" transform="matrix(-0.8779829754279806,0.4786918579406067,0.4786918579406067,0.8779829754279806,290.62794689297635,99.39746410417084)" class="pcb-silkscreen-text pcb-silkscreen-bottom" data-pcb-silkscreen-text-id="pcb_silkscreen_text_38" stroke="none" data-type="pcb_silkscreen_text" data-pcb-layer="bottom">O</text><text x="0" y="0" dx="0" dy="0" fill="#5da9e9" font-family="Arial, sans-serif" font-size="16.820696146218275" text-anchor="middle" dominant-baseline="central" transform="matrix(-0.8069603121438019,0.5906056676199254,0.5906056676199254,0.8069603121438019,265.0577540170941,115.62480194513157)" class="pcb-silkscreen-text pcb-silkscreen-bottom" data-pcb-silkscreen-text-id="pcb_silkscreen_text_39" stroke="none" data-type="pcb_silkscreen_text" data-pcb-layer="bottom">T</text><text x="0" y="0" dx="0" dy="0" fill="#5da9e9" font-family="Arial, sans-serif" font-size="16.820696146218275" text-anchor="middle" dominant-baseline="central" transform="matrix(-0.721760228098362,0.6921431738704069,0.6921431738704069,0.721760228098362,241.85835059761854,135.09141279794645)" class="pcb-silkscreen-text pcb-silkscreen-bottom" data-pcb-silkscreen-text-id="pcb_silkscreen_text_40" stroke="none" data-type="pcb_silkscreen_text" data-pcb-layer="bottom">T</text><text x="0" y="0" dx="0" dy="0" fill="#5da9e9" font-family="Arial, sans-serif" font-size="16.820696146218275" text-anchor="middle" dominant-baseline="central" transform="matrix(-0.6238795967093861,0.7815204724188188,0.7815204724188188,0.6238795967093861,221.43732508560302,157.45528934366442)" class="pcb-silkscreen-text pcb-silkscreen-bottom" data-pcb-silkscreen-text-id="pcb_silkscreen_text_41" stroke="none" data-type="pcb_silkscreen_text" data-pcb-layer="bottom">O</text><text x="0" y="0" dx="0" dy="0" fill="#5da9e9" font-family="Arial, sans-serif" font-size="16.820696146218275" text-anchor="middle" dominant-baseline="central" transform="matrix(-0.5150380749100543,0.8571673007021122,0.8571673007021122,0.5150380749100543,204.1534528343127,182.3235224356148)" class="pcb-silkscreen-text pcb-silkscreen-bottom" data-pcb-silkscreen-text-id="pcb_silkscreen_text_42" stroke="none" data-type="pcb_silkscreen_text" data-pcb-layer="bottom">M</text><polygon class="pcb-pad" fill="rgb(200, 52, 52)" points="685.9827532114848,271.96550642296955 685.9827532114848,328.03449357703045 644.1316185951699,323.93188476087965 644.1316185951699,276.06811523912035" data-type="pcb_smtpad" data-pcb-layer="top"/><polygon class="pcb-pad" fill="rgb(200, 52, 52)" points="653.4852761166421,164.658643583673 674.9419485699923,216.45963322394817 634.7065414621886,228.68505275215088 616.3898698556701,184.4646957421599" data-type="pcb_smtpad" data-pcb-layer="top"/><polygon class="pcb-pad" fill="rgb(200, 52, 52)" points="582.3969635827908,77.95627538631126 622.0437246136887,117.60303641720915 589.5495210116856,144.29527499030053 555.7047250096995,110.4504789883145" data-type="pcb_smtpad" data-pcb-layer="top"/><polygon class="pcb-pad" fill="rgb(200, 52, 52)" points="483.5403667760518,25.05805143000765 535.341356416327,46.51472388335782 515.5353042578402,83.61013014432987 471.31494724784915,65.29345853781143" data-type="pcb_smtpad" data-pcb-layer="top"/><polygon class="pcb-pad" fill="rgb(200, 52, 52)" points="371.96550642296955,14.017246788515251 428.0344935770305,14.017246788515251 423.93188476087965,55.868381404830075 376.06811523912035,55.868381404830075" data-type="pcb_smtpad" data-pcb-layer="top"/><polygon class="pcb-pad" fill="rgb(200, 52, 52)" points="264.6586435836731,46.51472388335782 316.45963322394823,25.05805143000765 328.6850527521509,65.29345853781143 284.46469574215996,83.61013014432987" data-type="pcb_smtpad" data-pcb-layer="top"/><polygon class="pcb-pad" fill="rgb(200, 52, 52)" points="177.9562753863113,117.60303641720915 217.60303641720918,77.95627538631126 244.29527499030053,110.4504789883145 210.45047898831453,144.29527499030053" data-type="pcb_smtpad" data-pcb-layer="top"/><polygon class="pcb-pad" fill="rgb(200, 52, 52)" points="125.05805143000765,216.45963322394815 146.51472388335782,164.658643583673 183.61013014432987,184.4646957421599 165.29345853781143,228.68505275215085" data-type="pcb_smtpad" data-pcb-layer="top"/><polygon class="pcb-pad" fill="rgb(200, 52, 52)" points="114.01724678851525,328.03449357703045 114.01724678851525,271.9655064229695 155.86838140483007,276.0681152391203 155.86838140483007,323.93188476087965" data-type="pcb_smtpad" data-pcb-layer="top"/><polygon class="pcb-pad" fill="rgb(200, 52, 52)" points="146.51472388335776,435.3413564163268 125.0580514300076,383.54036677605166 165.29345853781138,371.314947247849 183.6101301443298,415.53530425784" data-type="pcb_smtpad" data-pcb-layer="top"/><polygon class="pcb-pad" fill="rgb(200, 52, 52)" points="217.60303641720913,522.0437246136887 177.9562753863112,482.3969635827908 210.45047898831447,455.7047250096995 244.29527499030047,489.5495210116855" data-type="pcb_smtpad" data-pcb-layer="top"/><polygon class="pcb-pad" fill="rgb(200, 52, 52)" points="316.45963322394823,574.9419485699923 264.6586435836731,553.4852761166421 284.46469574215996,516.3898698556702 328.68505275215097,534.7065414621886" data-type="pcb_smtpad" data-pcb-layer="top"/><polygon class="pcb-pad" fill="rgb(200, 52, 52)" points="428.0344935770304,585.9827532114848 371.9655064229695,585.9827532114848 376.0681152391203,544.1316185951699 423.9318847608796,544.1316185951699" data-type="pcb_smtpad" data-pcb-layer="top"/><polygon class="pcb-pad" fill="rgb(200, 52, 52)" points="535.341356416327,553.4852761166421 483.5403667760519,574.9419485699923 471.31494724784915,534.7065414621885 515.5353042578402,516.3898698556701" data-type="pcb_smtpad" data-pcb-layer="top"/><polygon class="pcb-pad" fill="rgb(200, 52, 52)" points="622.0437246136887,482.3969635827909 582.3969635827907,522.0437246136888 555.7047250096994,489.54952101168556 589.5495210116854,455.70472500969953" data-type="pcb_smtpad" data-pcb-layer="top"/><polygon class="pcb-pad" fill="rgb(200, 52, 52)" points="674.9419485699923,383.54036677605177 653.4852761166421,435.3413564163269 616.3898698556702,415.53530425784004 634.7065414621886,371.3149472478491" data-type="pcb_smtpad" data-pcb-layer="top"/><text x="0" y="0" dx="0" dy="0" fill="#f2eda1" font-family="Arial, sans-serif" font-size="5.606898715406093" text-anchor="middle" dominant-baseline="central" transform="matrix(0.9952295494196666,-0.09756097560975609,0.09756097560975609,0.9952295494196666,663.9631568856871,262.85650826669433)" class="pcb-silkscreen-text pcb-silkscreen-top" data-pcb-silkscreen-text-id="pcb_silkscreen_text_0" stroke="none" data-type="pcb_silkscreen_text" data-pcb-layer="top">GND</text><text x="0" y="0" dx="0" dy="0" fill="#f2eda1" font-family="Arial, sans-serif" font-size="5.606898715406093" text-anchor="middle" dominant-baseline="central" transform="matrix(0.8821372418480319,-0.47099244850076627,0.47099244850076627,0.8821372418480319,629.6559590772263,164.6695613266573)" class="pcb-silkscreen-text pcb-silkscreen-top" data-pcb-silkscreen-text-id="pcb_silkscreen_text_1" stroke="none" data-type="pcb_silkscreen_text" data-pcb-layer="top">EXTRA</text><text x="0" y="0" dx="0" dy="0" fill="#f2eda1" font-family="Arial, sans-serif" font-size="5.606898715406093" text-anchor="middle" dominant-baseline="central" transform="matrix(0.6347475357990446,-0.7727195906647123,0.7727195906647123,0.6347475357990446,560.385723335711,87.08544690115522)" class="pcb-silkscreen-text pcb-silkscreen-top" data-pcb-silkscreen-text-id="pcb_silkscreen_text_2" stroke="none" data-type="pcb_silkscreen_text" data-pcb-layer="top">PWM</text><text x="0" y="0" dx="0" dy="0" fill="#f2eda1" font-family="Arial, sans-serif" font-size="5.606898715406093" text-anchor="middle" dominant-baseline="central" transform="matrix(0.2907232714253933,-0.9568071798704884,0.9568071798704884,0.2907232714253933,466.6982151165362,41.91564310972217)" class="pcb-silkscreen-text pcb-silkscreen-top" data-pcb-silkscreen-text-id="pcb_silkscreen_text_3" stroke="none" data-type="pcb_silkscreen_text" data-pcb-layer="top">EXTRA</text><text x="0" y="0" dx="0" dy="0" fill="#f2eda1" font-family="Arial, sans-serif" font-size="5.606898715406093" text-anchor="middle" dominant-baseline="central" transform="matrix(-0.09756097560975603,-0.9952295494196666,0.9952295494196666,-0.09756097560975603,362.85650826669433,36.03684311431289)" class="pcb-silkscreen-text pcb-silkscreen-top" data-pcb-silkscreen-text-id="pcb_silkscreen_text_4" stroke="none" data-type="pcb_silkscreen_text" data-pcb-layer="top">DATA</text><text x="0" y="0" dx="0" dy="0" fill="#f2eda1" font-family="Arial, sans-serif" font-size="5.606898715406093" text-anchor="middle" dominant-baseline="central" transform="matrix(-0.4709924485007662,-0.8821372418480319,0.8821372418480319,-0.4709924485007662,264.6695613266573,70.34404092277364)" class="pcb-silkscreen-text pcb-silkscreen-top" data-pcb-silkscreen-text-id="pcb_silkscreen_text_5" stroke="none" data-type="pcb_silkscreen_text" data-pcb-layer="top">EXTRA</text><text x="0" y="0" dx="0" dy="0" fill="#f2eda1" font-family="Arial, sans-serif" font-size="5.606898715406093" text-anchor="middle" dominant-baseline="central" transform="matrix(-0.7727195906647123,-0.6347475357990446,0.6347475357990446,-0.7727195906647123,187.08544690115522,139.61427666428904)" class="pcb-silkscreen-text pcb-silkscreen-top" data-pcb-silkscreen-text-id="pcb_silkscreen_text_6" stroke="none" data-type="pcb_silkscreen_text" data-pcb-layer="top">ADC</text><text x="0" y="0" dx="0" dy="0" fill="#f2eda1" font-family="Arial, sans-serif" font-size="5.606898715406093" text-anchor="middle" dominant-baseline="central" transform="matrix(-0.9568071798704884,-0.29072327142539334,0.29072327142539334,-0.9568071798704884,141.91564310972217,233.30178488346382)" class="pcb-silkscreen-text pcb-silkscreen-top" data-pcb-silkscreen-text-id="pcb_silkscreen_text_7" stroke="none" data-type="pcb_silkscreen_text" data-pcb-layer="top">EXTRA</text><text x="0" y="0" dx="0" dy="0" fill="#f2eda1" font-family="Arial, sans-serif" font-size="5.606898715406093" text-anchor="middle" dominant-baseline="central" transform="matrix(-0.9952295494196666,0.09756097560975642,-0.09756097560975642,-0.9952295494196666,136.0368431143129,337.1434917333058)" class="pcb-silkscreen-text pcb-silkscreen-top" data-pcb-silkscreen-text-id="pcb_silkscreen_text_8" stroke="none" data-type="pcb_silkscreen_text" data-pcb-layer="top">VCC</text><text x="0" y="0" dx="0" dy="0" fill="#f2eda1" font-family="Arial, sans-serif" font-size="4.765863908095179" text-anchor="middle" dominant-baseline="central" transform="matrix(-0.9952295494196666,-0.09756097560975623,0.09756097560975623,-0.9952295494196666,136.0368431143129,262.8565082666943)" class="pcb-silkscreen-text pcb-silkscreen-top" data-pcb-silkscreen-text-id="pcb_silkscreen_text_9" stroke="none" data-type="pcb_silkscreen_text" data-pcb-layer="top">5V</text><text x="0" y="0" dx="0" dy="0" fill="#f2eda1" font-family="Arial, sans-serif" font-size="5.606898715406093" text-anchor="middle" dominant-baseline="central" transform="matrix(-0.8821372418480319,0.47099244850076616,-0.47099244850076616,-0.8821372418480319,170.34404092277364,435.33043867334266)" class="pcb-silkscreen-text pcb-silkscreen-top" data-pcb-silkscreen-text-id="pcb_silkscreen_text_10" stroke="none" data-type="pcb_silkscreen_text" data-pcb-layer="top">EXTRA</text><text x="0" y="0" dx="0" dy="0" fill="#f2eda1" font-family="Arial, sans-serif" font-size="5.606898715406093" text-anchor="middle" dominant-baseline="central" transform="matrix(-0.6347475357990443,0.7727195906647125,-0.7727195906647125,-0.6347475357990443,239.6142766642891,512.9145530988449)" class="pcb-silkscreen-text pcb-silkscreen-top" data-pcb-silkscreen-text-id="pcb_silkscreen_text_11" stroke="none" data-type="pcb_silkscreen_text" data-pcb-layer="top">MISO</text><text x="0" y="0" dx="0" dy="0" fill="#f2eda1" font-family="Arial, sans-serif" font-size="5.606898715406093" text-anchor="middle" dominant-baseline="central" transform="matrix(-0.2907232714253934,0.9568071798704884,-0.9568071798704884,-0.2907232714253934,333.3017848834638,558.0843568902778)" class="pcb-silkscreen-text pcb-silkscreen-top" data-pcb-silkscreen-text-id="pcb_silkscreen_text_12" stroke="none" data-type="pcb_silkscreen_text" data-pcb-layer="top">EXTRA</text><text x="0" y="0" dx="0" dy="0" fill="#f2eda1" font-family="Arial, sans-serif" font-size="5.606898715406093" text-anchor="middle" dominant-baseline="central" transform="matrix(0.09756097560975635,0.9952295494196666,-0.9952295494196666,0.09756097560975635,437.1434917333057,563.9631568856871)" class="pcb-silkscreen-text pcb-silkscreen-top" data-pcb-silkscreen-text-id="pcb_silkscreen_text_13" stroke="none" data-type="pcb_silkscreen_text" data-pcb-layer="top">RST</text><text x="0" y="0" dx="0" dy="0" fill="#f2eda1" font-family="Arial, sans-serif" font-size="5.606898715406093" text-anchor="middle" dominant-baseline="central" transform="matrix(0.4709924485007661,0.882137241848032,-0.882137241848032,0.4709924485007661,535.3304386733427,529.6559590772263)" class="pcb-silkscreen-text pcb-silkscreen-top" data-pcb-silkscreen-text-id="pcb_silkscreen_text_14" stroke="none" data-type="pcb_silkscreen_text" data-pcb-layer="top">EXTRA</text><text x="0" y="0" dx="0" dy="0" fill="#f2eda1" font-family="Arial, sans-serif" font-size="5.606898715406093" text-anchor="middle" dominant-baseline="central" transform="matrix(0.772719590664712,0.6347475357990451,-0.6347475357990451,0.772719590664712,612.9145530988447,460.3857233357111)" class="pcb-silkscreen-text pcb-silkscreen-top" data-pcb-silkscreen-text-id="pcb_silkscreen_text_15" stroke="none" data-type="pcb_silkscreen_text" data-pcb-layer="top">SCK</text><text x="0" y="0" dx="0" dy="0" fill="#f2eda1" font-family="Arial, sans-serif" font-size="5.606898715406093" text-anchor="middle" dominant-baseline="central" transform="matrix(0.9568071798704884,0.29072327142539345,-0.29072327142539345,0.9568071798704884,658.0843568902778,366.6982151165362)" class="pcb-silkscreen-text pcb-silkscreen-top" data-pcb-silkscreen-text-id="pcb_silkscreen_text_16" stroke="none" data-type="pcb_silkscreen_text" data-pcb-layer="top">EXTRA</text><text x="0" y="0" dx="0" dy="0" fill="#f2eda1" font-family="Arial, sans-serif" font-size="16.820696146218275" text-anchor="middle" dominant-baseline="central" transform="matrix(0.6427876096865394,-0.766044443118978,0.766044443118978,0.6427876096865394,224.97330563423827,153.13516531151078)" class="pcb-silkscreen-text pcb-silkscreen-top" data-pcb-silkscreen-text-id="pcb_silkscreen_text_34" stroke="none" data-type="pcb_silkscreen_text" data-pcb-layer="top">T</text><text x="0" y="0" dx="0" dy="0" fill="#f2eda1" font-family="Arial, sans-serif" font-size="16.820696146218275" text-anchor="middle" dominant-baseline="central" transform="matrix(0.766044443118978,-0.6427876096865393,0.6427876096865393,0.766044443118978,253.1351653115108,124.97330563423824)" class="pcb-silkscreen-text pcb-silkscreen-top" data-pcb-silkscreen-text-id="pcb_silkscreen_text_35" stroke="none" data-type="pcb_silkscreen_text" data-pcb-layer="top">O</text><text x="0" y="0" dx="0" dy="0" fill="#f2eda1" font-family="Arial, sans-serif" font-size="16.820696146218275" text-anchor="middle" dominant-baseline="central" transform="matrix(0.8660254037844387,-0.49999999999999994,0.49999999999999994,0.8660254037844387,285.7594386736009,102.12954349748853)" class="pcb-silkscreen-text pcb-silkscreen-top" data-pcb-silkscreen-text-id="pcb_silkscreen_text_36" stroke="none" data-type="pcb_silkscreen_text" data-pcb-layer="top">P</text><circle class="pcb-cutout pcb-cutout-circle" cx="285.75943867360087" cy="300" r="105.12935091386423" fill="#FF26E2" data-type="pcb_cutout" data-pcb-layer="drill"/><circle class="pcb-cutout pcb-cutout-circle" cx="514.2405613263991" cy="300" r="105.12935091386423" fill="#FF26E2" data-type="pcb_cutout" data-pcb-layer="drill"/><polygon class="pcb-cutout pcb-cutout-polygon" points="439.2482910078426,77.47620723232072 439.0094779568322,75.6622420179358 438.30931351857004,73.97189553519192 437.19551274244725,72.5203621034585 435.7439793107138,71.40656132733574 434.05363282797,70.70639688907355 432.239667613585,70.46758383806312 367.760332386415,70.46758383806312 365.94636717203,70.70639688907355 364.2560206892862,71.40656132733574 362.80448725755275,72.5203621034585 361.69068648142996,73.97189553519192 360.9905220431678,75.6622420179358 360.7517089921574,77.47620723232072 360.7517089921574,141.9555424594908 360.9905220431678,143.76950767387575 361.69068648142996,145.4598541566196 362.80448725755275,146.91138758835302 364.2560206892862,148.0251883644758 365.94636717203,148.72535280273797 367.760332386415,148.96416585374843 432.239667613585,148.96416585374843 434.05363282797,148.72535280273797 435.7439793107138,148.0251883644758 437.19551274244725,146.91138758835302 438.30931351857004,145.4598541566196 439.0094779568322,143.76950767387575 439.2482910078426,141.9555424594908" fill="#FF26E2" data-type="pcb_cutout" data-pcb-layer="drill"/><polygon class="pcb-cutout pcb-cutout-polygon" points="376.17068045952414,86.93784881456853 376.40949351053456,88.75181402895345 377.1096579487967,90.44216051169732 378.2234587249195,91.89369394343075 379.67499215665293,93.0074947195535 381.3653386393968,93.70765915781567 383.17930385378173,93.94647220882612 416.82069614621827,93.94647220882612 418.6346613606032,93.70765915781567 420.32500784334707,93.0074947195535 421.77654127508055,91.89369394343075 422.8903420512033,90.44216051169732 423.59050648946544,88.75181402895345 423.8293195404759,86.93784881456853 423.8293195404759,64.51025395294411 423.5905064894655,62.69628873855919 422.89034205120333,61.00594225581531 421.77654127508055,59.55440882408189 420.3250078433471,58.44060804795913 418.6346613606032,57.74044360969697 416.82069614621827,57.501630558686514 383.17930385378173,57.501630558686514 381.3653386393968,57.74044360969697 379.67499215665293,58.4406080479591 378.2234587249195,59.55440882408189 377.1096579487967,61.00594225581531 376.40949351053456,62.69628873855919 376.17068045952414,64.51025395294411" fill="#FF26E2" data-type="pcb_cutout" data-pcb-layer="drill"/><polygon class="pcb-cutout pcb-cutout-polygon" points="227.39742425869352,427.1678716696648 228.84895769042697,426.0540708935421 229.96275846654976,424.6025374618086 230.6629229048119,422.91219097906475 230.90173595582232,421.0982257646798 230.6629229048119,419.28426055029485 229.96275846654973,417.593914067551 213.14206232033146,388.45961372362297 212.0282615442087,387.00808029188954 210.57672811247525,385.89427951576675 208.8863816297314,385.19411507750453 207.07241641534645,384.9553020264941 205.25845120096147,385.19411507750453 203.56810471821765,385.8942795157667 184.1452378222656,397.10807694657893 182.69370439053216,398.2218777227017 181.57990361440937,399.67341115443514 180.8797391761472,401.363757637179 180.6409261251368,403.17772285156394 180.8797391761472,404.9916880659489 181.5799036144094,406.68203454869274 198.40059976062767,435.81633489262083 199.51440053675043,437.26786832435425 200.96593396848388,438.381669100477 202.6562804512277,439.08183353873915 204.47024566561268,439.3206465897496 206.28421087999763,439.08183353873915 207.97455736274148,438.381669100477" fill="#FF26E2" data-type="pcb_cutout" data-pcb-layer="drill"/><polygon class="pcb-cutout pcb-cutout-polygon" points="596.4318952817823,385.8942795157668 594.7415487990385,385.19411507750465 592.9275835846535,384.9553020264942 591.1136183702686,385.19411507750465 589.4232718875247,385.8942795157668 587.9717384557912,387.00808029188954 586.8579376796685,388.459613723623 570.0372415334502,417.59391406755105 569.3370770951881,419.2842605502949 569.0982640441777,421.0982257646799 569.3370770951881,422.9121909790648 570.0372415334502,424.60253746180865 571.151042309573,426.05407089354213 572.6025757413064,427.1678716696649 592.0254426372585,438.3816691004771 593.7157891200023,439.08183353873926 595.5297543343872,439.3206465897497 597.3437195487722,439.08183353873926 599.0340660315161,438.3816691004771 600.4855994632495,437.26786832435425 601.5994002393722,435.8163348926209 618.4200963855906,406.6820345486928 619.1202608238527,404.99168806594895 619.3590738748632,403.177722851564 619.1202608238527,401.36375763717905 618.4200963855906,399.6734111544352 617.3062956094677,398.2218777227018 615.8547621777343,397.108076946579" fill="#FF26E2" data-type="pcb_cutout" data-pcb-layer="drill"/></svg>