<?xml version="1.0" encoding="UTF-8" standalone="no"?>
<!-- Created with Inkscape (http://www.inkscape.org/) -->

<svg
   width="210mm"
   height="297mm"
   viewBox="0 0 210 297"
   version="1.1"
   id="svg1"
   xml:space="preserve"
   inkscape:version="1.4 (86a8ad7, 2024-10-11)"
   sodipodi:docname="Maker Chip.svg"
   xmlns:inkscape="http://www.inkscape.org/namespaces/inkscape"
   xmlns:sodipodi="http://sodipodi.sourceforge.net/DTD/sodipodi-0.dtd"
   xmlns="http://www.w3.org/2000/svg"
   xmlns:svg="http://www.w3.org/2000/svg"><sodipodi:namedview
     id="namedview1"
     pagecolor="#505050"
     bordercolor="#eeeeee"
     borderopacity="1"
     inkscape:showpageshadow="0"
     inkscape:pageopacity="0"
     inkscape:pagecheckerboard="0"
     inkscape:deskcolor="#505050"
     inkscape:document-units="mm"
     inkscape:zoom="0.97386895"
     inkscape:cx="-246.95314"
     inkscape:cy="480.55747"
     inkscape:window-width="2092"
     inkscape:window-height="1360"
     inkscape:window-x="452"
     inkscape:window-y="0"
     inkscape:window-maximized="0"
     inkscape:current-layer="layer1" /><defs
     id="defs1" /><g
     inkscape:label="Layer 1"
     inkscape:groupmode="layer"
     id="layer1"><path
       style="fill:#ffffff"
       d="m 101.46343,140.39439 c -11.836161,-0.88771 -22.425791,-4.46019 -32.026281,-10.80427 -14.19295,-9.37881 -24.29044,-23.98636 -28.03839,-40.561751 -1.5347,-6.787253 -1.98362,-14.292162 -1.27176,-21.260847 0.93028,-9.106822 3.78358,-18.092365 8.18922,-25.789277 2.99722,-5.236328 6.23131,-9.524933 10.30264,-13.661934 3.37424,-3.428667 6.47589,-6.03187 10.15166,-8.52027 10.61155,-7.183723 22.64432,-11.0294277 35.529241,-11.3552337 7.61941,-0.192663 15.52491,1.009042 22.64963,3.4429407 12.70357,4.33971 23.54344,12.203342 31.68095,22.982497 4.51651,5.98269 8.22246,13.288232 10.39381,20.489334 1.44906,4.805681 2.31719,9.601463 2.67443,14.774333 0.12741,1.84485 0.12962,7.056807 0.004,8.763 -0.29881,4.049426 -0.86152,7.649587 -1.78653,11.43 -2.71192,11.083228 -8.38165,21.392278 -16.34985,29.728298 -8.77586,9.18096 -19.73108,15.52672 -32.12116,18.60603 -3.2698,0.81265 -7.15193,1.41518 -10.99625,1.70669 -1.76654,0.13395 -7.35268,0.15289 -8.98508,0.0305 z m -9.069991,-4.62664 c 0.0237,-0.0815 0.75652,-2.96757 1.62849,-6.4135 0.87198,-3.44594 1.60763,-6.29063 1.63479,-6.32155 0.0272,-0.0309 0.56373,0.0361 1.19238,0.149 6.019191,1.08066 11.724451,1.09489 17.695331,0.0441 0.76835,-0.13522 1.40996,-0.23378 1.4258,-0.21902 0.0158,0.0148 0.76437,2.90871 1.66341,6.431 0.89904,3.5223 1.65119,6.42074 1.67144,6.44099 0.0203,0.0203 0.66236,-0.11702 1.42692,-0.30504 6.22769,-1.53155 12.28676,-4.08023 17.66726,-7.43153 0.57045,-0.35531 1.03717,-0.68038 1.03717,-0.72238 0,-0.042 -1.4859,-2.5839 -3.302,-5.64864 -1.8161,-3.06475 -3.302,-5.6063 -3.302,-5.64789 0,-0.0416 0.35243,-0.31935 0.78317,-0.61723 3.87589,-2.68034 7.29945,-5.80176 10.25556,-9.35049 0.89165,-1.07039 2.26618,-2.88434 2.96738,-3.91598 0.22941,-0.33753 0.44758,-0.61369 0.48481,-0.61369 0.0549,0 8.40121,4.91713 10.71341,6.31165 l 0.60866,0.3671 0.50272,-0.82054 c 2.907,-4.74488 5.31257,-10.107011 6.86326,-15.298539 0.5813,-1.946129 1.09674,-3.935841 1.03023,-3.976943 -0.0299,-0.01849 -2.89101,-0.764403 -6.35797,-1.657576 -3.46696,-0.893173 -6.31862,-1.637799 -6.33702,-1.654725 -0.0184,-0.01693 0.0855,-0.74597 0.23094,-1.620099 0.58033,-3.488449 0.72839,-5.266959 0.72438,-8.701324 -0.004,-3.499839 -0.1963,-5.737775 -0.76964,-8.960744 -0.17044,-0.958139 -0.19919,-1.271063 -0.12122,-1.319253 0.0562,-0.03475 2.89164,-0.779918 6.30094,-1.655937 3.4093,-0.876019 6.24302,-1.615856 6.29715,-1.644081 0.11655,-0.06076 -0.63852,-3.126954 -1.32481,-5.37981 -1.44308,-4.737184 -3.97829,-10.283743 -6.4905,-14.199976 l -0.41555,-0.647802 -5.54345,3.298889 c -3.0489,1.814388 -5.603,3.332149 -5.67578,3.372802 -0.10562,0.059 -0.31568,-0.187955 -1.04092,-1.223743 -3.33421,-4.761885 -7.63375,-9.059741 -12.37342,-12.368569 -0.65193,-0.455124 -1.19848,-0.837815 -1.21456,-0.850424 -0.0161,-0.01261 1.45998,-2.536314 3.28014,-5.608233 1.82015,-3.071919 3.32822,-5.636865 3.35126,-5.69988 0.0263,-0.07205 -0.13838,-0.220487 -0.44381,-0.399938 -0.26713,-0.156951 -1.02761,-0.603642 -1.68995,-0.992647 -4.20331,-2.46867 -9.1823,-4.586068 -13.99341,-5.950932 -1.13459,-0.321872 -4.2299,-1.058796 -4.26805,-1.016126 -0.0159,0.01782 -0.73455,2.882742 -1.59693,6.366489 -0.86238,3.483747 -1.58264,6.348755 -1.60056,6.366683 -0.0179,0.01793 -0.68345,-0.07861 -1.47893,-0.214529 -6.01931,-1.028486 -11.54797,-1.028846 -17.612341,-0.0011 -0.78404,0.132866 -1.44889,0.216526 -1.47746,0.185909 -0.0286,-0.03062 -0.7506,-2.894116 -1.60452,-6.363332 -0.85391,-3.469217 -1.56267,-6.322245 -1.57501,-6.340062 -0.0324,-0.04674 -2.49811,0.548036 -3.8382,0.925834 -3.96322,1.117311 -7.81212,2.632568 -11.51467,4.533158 -1.41578,0.726753 -4.826,2.728988 -4.826,2.833486 0,0.03132 1.5109,2.529014 3.35754,5.550431 1.84665,3.021417 3.37056,5.550636 3.38647,5.620486 0.0188,0.08255 -0.30359,0.349247 -0.92114,0.762 -3.07495,2.055193 -6.87484,5.463752 -9.52134,8.540775 -1.10862,1.288962 -2.72271,3.386587 -3.49715,4.544798 -0.24741,0.370018 -0.46044,0.685915 -0.47339,0.701992 -0.013,0.01608 -2.53695,-1.459985 -5.60887,-3.280137 -3.07192,-1.820153 -5.63686,-3.328854 -5.69988,-3.35267 -0.0772,-0.02918 -0.42223,0.474455 -1.05806,1.544471 -2.28019,3.837246 -3.82157,7.036461 -5.33295,11.068859 -1.03282,2.755568 -2.35882,7.245262 -2.18459,7.396775 0.0435,0.0378 2.86033,0.782197 6.2597,1.654212 3.39936,0.872016 6.24893,1.60553 6.33237,1.630032 0.0978,0.02871 0.1352,0.09656 0.10526,0.190876 -0.11873,0.374076 -0.56101,3.258483 -0.71546,4.666017 -0.53571,4.881807 -0.32587,10.323826 0.57457,14.901333 0.087,0.442384 0.13461,0.829966 0.10574,0.861295 -0.0289,0.03133 -2.90046,0.790197 -6.38132,1.686375 -4.65139,1.197542 -6.32883,1.661328 -6.32883,1.749823 0,0.220541 0.7655,3.177767 1.15593,4.465507 1.36327,4.496468 3.18147,8.713244 5.51253,12.784664 0.63427,1.10782 1.70724,2.83634 1.76065,2.83634 0.0158,0 2.53579,-1.49032 5.59998,-3.31181 3.06418,-1.8215 5.61591,-3.32939 5.6705,-3.35087 0.0546,-0.0215 0.33401,0.31007 0.62093,0.73679 2.84969,4.23809 7.15173,8.73091 11.38715,11.89212 0.6985,0.52134 1.56738,1.1474 1.93085,1.39124 l 0.66084,0.44334 -0.23213,0.39643 c -0.12768,0.21803 -1.62019,2.73867 -3.3167,5.60142 -1.6965,2.86275 -3.10159,5.24939 -3.12241,5.30365 -0.0428,0.11167 1.76262,1.24079 3.61388,2.26007 4.81009,2.64839 9.3636,4.45736 15.15533,6.02073 0.76835,0.2074 1.42301,0.37945 1.4548,0.38232 0.0318,0.003 0.0772,-0.0615 0.10088,-0.14293 z m 11.271321,-18.02004 c -5.290601,-0.39263 -9.411041,-1.29949 -13.716001,-3.01872 -5.88849,-2.35163 -11.39597,-6.11345 -15.5888,-10.64774 -5.55643,-6.008961 -9.21749,-13.137738 -10.78341,-20.997338 -2.24619,-11.273998 0.0475,-22.956473 6.36296,-32.408483 5.12923,-7.676646 12.49767,-13.516155 21.01137,-16.651567 3.95679,-1.4572 7.8777,-2.290365 12.205881,-2.593659 1.75955,-0.123299 5.50071,-0.05565 7.239,0.130906 8.85601,0.950416 17.05844,4.4848 23.71443,10.218423 6.77574,5.836779 11.62788,13.674743 13.7482,22.208303 2.94873,11.867668 0.83682,24.363818 -5.8063,34.355887 -1.96433,2.954608 -3.993,5.344858 -6.67966,7.870248 -6.928,6.51213 -15.83298,10.48733 -25.56933,11.41419 -0.97835,0.0931 -5.34765,0.17823 -6.13834,0.11955 z m 0.46567,-1.7708 c 0,-0.27001 -0.0216,-0.29633 -0.24363,-0.29633 -0.42138,0 -0.4577,-0.12975 -0.39004,-1.3931 0.0656,-1.22501 0.12456,-1.37737 0.49674,-1.28396 0.21436,0.0538 0.30626,-0.0596 0.30626,-0.37787 0,-0.13743 -0.0622,-0.1624 -0.40449,-0.1624 -0.50224,0 -0.75091,0.16618 -0.85982,0.5746 -0.1165,0.43688 -0.13457,2.57124 -0.0235,2.77872 0.13062,0.24406 0.44815,0.38364 1.01268,0.44515 0.0667,0.007 0.10583,-0.098 0.10583,-0.28481 z m 1.14926,0.10076 c 0.16019,-0.13779 0.24765,-0.31915 0.29601,-0.61383 0.10196,-0.62133 0.0933,-2.39194 -0.0127,-2.58999 -0.10493,-0.19607 -0.56444,-0.4106 -0.87947,-0.4106 -0.18856,0 -0.21438,0.0357 -0.21438,0.29633 0,0.28191 0.0143,0.29633 0.29472,0.29633 0.38246,0 0.40113,0.0865 0.31979,1.48167 l -0.0642,1.10067 -0.35983,0.026 c -0.33066,0.0239 -0.35984,0.0451 -0.35984,0.26105 0,0.30723 0.0506,0.34791 0.43273,0.34791 0.21207,0 0.39644,-0.0659 0.5472,-0.19557 z m 1.47541,-0.30337 c 0,-0.58463 0.023,-0.60172 0.81126,-0.60172 h 0.5434 v -0.28833 -0.28833 l -0.67733,0.0464 c -0.63824,0.0438 -0.67733,0.0366 -0.67733,-0.12443 0,-0.25887 0.5731,-1.46202 0.69636,-1.46192 0.0594,5e-5 0.27416,0.30793 0.47728,0.6842 0.35244,0.65288 0.37135,0.72438 0.41432,1.56625 l 0.045,0.88213 h 0.274 0.27399 l -0.0417,-0.9525 -0.0416,-0.9525 -0.4776,-0.889 -0.4776,-0.889 -0.38521,-0.0251 c -0.48201,-0.0314 -0.54377,0.0348 -1.00061,1.07298 -0.369,0.83856 -0.41985,1.23147 -0.29447,2.27531 0.0505,0.4202 0.0666,0.4445 0.2956,0.4445 0.2391,0 0.24221,-0.006 0.24221,-0.49894 z m 3.36024,0.0121 c -0.0264,-0.17462 -0.13305,-1.01282 -0.23691,-1.86266 l -0.18883,-1.54517 h -0.2911 c -0.25866,0 -0.28612,0.0212 -0.24644,0.1905 0.0246,0.10478 0.13114,0.94298 0.23684,1.86267 l 0.1922,1.67216 h 0.29115 c 0.28855,0 0.29073,-0.003 0.24309,-0.3175 z m -8.08174,-0.0142 c 0.26875,-0.24011 0.27674,-0.2669 0.28518,-0.95591 0.005,-0.38988 0.0524,-0.79056 0.10584,-0.89039 0.0534,-0.0998 0.0971,-0.40924 0.0971,-0.68756 0,-0.45794 -0.0241,-0.52629 -0.25312,-0.71904 -0.17596,-0.14806 -0.40181,-0.23041 -0.74083,-0.27013 -0.85965,-0.10071 -0.82383,-0.10858 -0.85249,0.18729 l -0.0261,0.26955 0.59621,0.0588 c 0.69689,0.0687 0.81097,0.1639 0.72803,0.60772 -0.104,0.55652 -0.20248,0.5873 -1.25085,0.39092 -0.21796,-0.0408 -0.23284,-0.0247 -0.23284,0.25271 v 0.29632 l 0.55461,0.0594 c 0.67242,0.072 0.80591,0.1819 0.74202,0.61088 -0.0564,0.37858 -0.2221,0.53232 -0.52389,0.486 -0.89548,-0.13742 -0.94158,-0.13541 -0.95477,0.0415 -0.007,0.0937 -0.0165,0.21796 -0.0212,0.27617 -0.009,0.11399 0.41304,0.20114 1.0697,0.22082 0.33275,0.01 0.4478,-0.0299 0.67734,-0.23502 z m -1.93076,-0.19746 c 0.081,-0.50556 0.38692,-3.08139 0.38692,-3.25778 0,-0.11711 -0.0725,-0.19222 -0.22165,-0.22966 -0.12191,-0.0306 -0.23784,-0.0395 -0.25762,-0.0197 -0.0421,0.0421 -0.452061,3.29324 -0.452061,3.5847 0,0.16242 0.0445,0.19758 0.25016,0.19758 0.216751,0 0.256061,-0.0367 0.294251,-0.27517 z m 12.11526,-0.20377 c -0.0766,-0.61319 -0.0804,-0.62091 -0.44081,-0.89517 -0.24902,-0.1895 -0.27822,-0.24089 -0.16215,-0.28543 0.4338,-0.16646 0.48597,-1.24462 0.0834,-1.72307 -0.2511,-0.29841 -0.50242,-0.34712 -1.23225,-0.2388 -0.55161,0.0819 -0.57851,0.0965 -0.57851,0.31553 0,0.12631 0.0186,0.24823 0.0413,0.27092 0.0227,0.0227 0.31725,0.008 0.65456,-0.032 0.72038,-0.086 0.82817,-0.0107 0.82817,0.57873 0,0.39768 0.0182,0.38764 -0.91016,0.50201 -0.44481,0.0548 -0.48367,0.0962 -0.39621,0.42164 0.0383,0.14247 0.1017,0.1658 0.37876,0.13938 0.28959,-0.0276 0.38788,0.0144 0.7572,0.32361 0.32543,0.27247 0.42441,0.41112 0.42441,0.59453 0,0.39082 0.082,0.50704 0.35748,0.50704 h 0.2547 z m 1.21626,0.1779 c 0.0183,-0.0183 -0.13408,-0.84388 -0.33864,-1.83462 l -0.37191,-1.80134 -0.25386,0.0294 c -0.13962,0.0162 -0.26149,0.0365 -0.27082,0.0452 -0.015,0.014 0.57895,3.00363 0.69753,3.51083 0.0393,0.16797 0.0819,0.18985 0.27545,0.14129 0.12594,-0.0316 0.24395,-0.0724 0.26225,-0.0907 z m -14.652101,-0.24223 c 0.15374,-0.15121 0.25196,-0.45478 0.44345,-1.37065 0.13529,-0.64703 0.24644,-1.26154 0.24701,-1.36558 0.002,-0.2894 -0.4158,-0.69796 -0.77063,-0.75432 -0.2804,-0.0445 -0.31093,-0.029 -0.36474,0.18541 -0.0627,0.24984 0.0404,0.37343 0.31357,0.37578 0.25442,0.002 0.26609,0.2417 0.0636,1.30571 -0.25151,1.32171 -0.26854,1.35355 -0.68818,1.28645 -0.31063,-0.0497 -0.33059,-0.04 -0.33059,0.1598 0,0.11697 -0.01,0.24087 -0.0212,0.27534 -0.0302,0.0893 0.44718,0.1818 0.6985,0.13538 0.11641,-0.0215 0.30054,-0.1265 0.40916,-0.23332 z m 15.667391,0.0828 c 0.6844,-0.14675 0.96386,-0.39918 0.95646,-0.86391 -0.003,-0.17965 -0.10568,-0.80289 -0.22849,-1.38497 -0.31383,-1.48743 -0.45349,-1.61459 -1.57363,-1.43268 -0.58513,0.095 -0.66806,0.13031 -0.66693,0.28377 0.003,0.36439 0.094,0.39983 0.70176,0.27243 0.42034,-0.0881 0.59483,-0.094 0.68587,-0.023 0.0699,0.0545 0.21889,0.58132 0.34865,1.23316 0.21639,1.087 0.21975,1.14297 0.075,1.24883 -0.0834,0.061 -0.19957,0.11084 -0.25823,0.11084 -0.0587,0 -0.29218,0.0398 -0.51893,0.0884 -0.39354,0.0844 -0.41062,0.0998 -0.37556,0.33866 0.0422,0.28742 0.0837,0.29366 0.85406,0.12846 z m -16.974611,-0.0968 c 0.0992,-0.25862 0.0549,-0.45874 -0.10176,-0.45874 -0.0842,0 -0.22565,-0.053 -0.31425,-0.1178 -0.15783,-0.11541 -0.15703,-0.13817 0.0397,-1.12184 0.27975,-1.39853 0.27321,-1.38503 0.6704,-1.38503 0.28706,0 0.33905,-0.0298 0.38721,-0.22166 0.0692,-0.27558 0.0539,-0.29022 -0.36017,-0.34576 -0.42849,-0.0575 -0.82941,0.16445 -0.94259,0.52178 -0.0448,0.14152 -0.1823,0.74503 -0.30549,1.34114 -0.28624,1.3851 -0.21967,1.60799 0.55003,1.84155 0.3123,0.0948 0.32038,0.0936 0.37689,-0.0536 z m -2.8327,-0.94558 c 0.0472,-0.17462 0.27573,-0.9648 0.50791,-1.75595 0.23218,-0.79115 0.39426,-1.46633 0.36019,-1.5004 -0.0341,-0.0341 -0.1535,-0.0726 -0.26541,-0.0855 -0.19531,-0.0226 -0.22394,0.0471 -0.71355,1.73899 -0.4294,1.48381 -0.49067,1.77487 -0.38739,1.8402 0.25447,0.16099 0.41077,0.0866 0.49825,-0.23729 z m 23.108251,0.18756 c 0.0879,-0.0879 -0.0935,-0.46258 -0.22327,-0.46143 -0.2714,0.002 -0.38483,0.13518 -0.32366,0.37887 0.05,0.19914 0.0873,0.22151 0.28645,0.17154 0.12594,-0.0316 0.24315,-0.0717 0.26048,-0.089 z m 1.99707,-0.63062 c 0.21538,-0.0819 0.21685,-0.0882 0.0912,-0.38887 -0.1189,-0.28457 -0.11505,-0.33506 0.0558,-0.73227 0.17853,-0.415 0.17921,-0.42979 0.0251,-0.54246 -0.26577,-0.19434 -0.3458,-0.13665 -0.5823,0.41981 l -0.22765,0.53565 0.16961,0.39568 c 0.1891,0.44115 0.16754,0.42676 0.46819,0.31246 z m -27.318471,-0.36917 c 0.10694,-0.10687 0.38595,-0.70421 0.62004,-1.32744 0.5408,-1.43979 0.50692,-1.7531 -0.21944,-2.02926 -0.21221,-0.0807 -0.26819,-0.0725 -0.35968,0.0526 -0.1712,0.23413 -0.12832,0.37165 0.14565,0.46716 0.33705,0.1175 0.32811,0.24177 -0.0991,1.37717 -0.43515,1.15641 -0.47736,1.2095 -0.86652,1.09006 -0.28206,-0.0866 -0.298,-0.0799 -0.38142,0.15939 -0.0813,0.23316 -0.069,0.2578 0.18552,0.37153 0.3427,0.15315 0.7234,0.0902 0.97499,-0.16124 z m -1.33533,-0.27278 c 0.10723,-0.28205 0.11917,-0.25512 -0.16535,-0.37297 -0.13635,-0.0565 -0.26456,-0.14683 -0.2849,-0.20077 -0.0352,-0.0932 0.66315,-2.01089 0.81791,-2.2461 0.0699,-0.10618 0.28168,-0.0978 0.56354,0.0222 0.15631,0.0666 0.3801,-0.41966 0.23456,-0.50961 -0.45175,-0.27919 -1.1407,-0.12951 -1.335,0.29005 -0.28669,0.61906 -0.8485,2.20126 -0.84867,2.39008 -2.5e-4,0.28905 0.21953,0.58327 0.53984,0.72268 0.36075,0.15701 0.38381,0.1524 0.47807,-0.0955 z m 30.692511,-0.1555 c 0.15977,-0.11683 0.15967,-0.12502 -0.007,-0.52596 l -0.16879,-0.40729 -1.18383,-0.52533 c -1.57036,-0.69687 -1.62177,-0.72846 -1.68986,-1.03848 -0.0605,-0.27526 -0.19354,-0.32495 -0.47165,-0.17611 -0.15516,0.083 -0.15618,0.10238 -0.0234,0.4445 0.0764,0.19673 0.16815,0.39634 0.20395,0.44359 0.0358,0.0473 0.66412,0.35205 1.39625,0.67734 1.26288,0.56109 1.33767,0.6077 1.45834,0.90892 0.13755,0.34334 0.23386,0.38279 0.48545,0.19882 z m -32.349251,-0.78615 c 0.20948,-0.45757 0.21434,-0.4994 0.0978,-0.84146 l -0.12265,-0.35996 0.2448,-0.0538 c 0.30008,-0.0659 0.60938,-0.42019 0.79798,-0.91401 0.20685,-0.54163 0.0425,-0.90211 -0.54766,-1.20116 -0.79138,-0.40102 -0.83028,-0.4066 -0.96868,-0.13896 l -0.12288,0.23763 0.58764,0.28428 c 0.44486,0.21521 0.58756,0.32659 0.58732,0.45843 -4.4e-4,0.2443 -0.30965,0.72447 -0.46652,0.72447 -0.0719,0 -0.35717,-0.11434 -0.63402,-0.25409 l -0.50336,-0.2541 -0.13154,0.25436 c -0.1311,0.25354 -0.13056,0.25483 0.16511,0.39583 0.25059,0.11949 0.324,0.22365 0.47284,0.67091 l 0.17619,0.52946 -0.1801,0.35302 c -0.0991,0.19416 -0.16791,0.36276 -0.15302,0.37466 0.0774,0.0619 0.37333,0.21114 0.42303,0.21338 0.0315,0.001 0.15649,-0.2141 0.27773,-0.47893 z m 34.374331,-0.12476 c 0.1186,-0.054 0.2137,-0.12072 0.21132,-0.14817 -0.002,-0.0275 -0.16538,-0.39061 -0.36224,-0.80702 l -0.35791,-0.75712 0.24757,-0.70794 0.24758,-0.70795 -0.19234,-0.41065 c -0.1865,-0.39819 -0.19987,-0.40802 -0.44085,-0.32401 -0.18326,0.0639 -0.23331,0.12289 -0.19059,0.22471 0.23775,0.56663 0.23806,0.5744 0.0433,1.09529 l -0.19203,0.51347 -0.52089,-0.18501 c -0.41981,-0.14911 -0.54821,-0.23971 -0.66165,-0.46688 -0.0774,-0.15502 -0.15988,-0.30098 -0.18325,-0.32436 -0.0344,-0.0344 -0.35431,0.0936 -0.46486,0.18595 -0.0148,0.0123 0.0691,0.21183 0.18641,0.4433 0.20566,0.40586 0.2379,0.42944 0.90417,0.66137 l 0.6909,0.24051 0.39063,0.78638 c 0.21485,0.43251 0.39929,0.78639 0.40988,0.78639 0.0106,0 0.11628,-0.0442 0.23489,-0.0983 z m -36.200441,-1.02358 c 0.18031,-0.38417 0.54041,-1.14598 0.80024,-1.69291 l 0.4724,-0.99441 -0.23888,-0.12353 -0.23888,-0.12353 -0.81854,1.70107 c -0.4502,0.93559 -0.8079,1.70927 -0.7949,1.71929 0.0863,0.0665 0.37342,0.20782 0.42652,0.20995 0.0353,0.001 0.21174,-0.31175 0.39204,-0.69593 z m 8.93749,0.4737 c 0.0645,-0.25706 -0.0134,-0.32851 -0.44711,-0.40987 -0.30815,-0.0578 -0.43382,0.0328 -0.43633,0.31475 -8.2e-4,0.0922 0.0998,0.17493 0.27387,0.2252 0.45312,0.13083 0.54923,0.11032 0.60957,-0.13008 z m 24.155431,-0.66628 c 0.22575,-0.55404 0.23258,-0.68086 0.059,-1.09629 -0.1176,-0.28146 -0.15562,-0.30867 -0.35966,-0.25746 -0.30891,0.0775 -0.30902,0.0778 -0.16594,0.43658 0.11771,0.29511 0.11325,0.34425 -0.0685,0.75521 l -0.19439,0.43956 0.18483,0.0893 c 0.3052,0.14753 0.34631,0.11983 0.54466,-0.36695 z m -25.903331,0.14002 c 0.081,-0.2323 0.0706,-0.24729 -0.23438,-0.33867 -0.46861,-0.14039 -0.57132,-0.11994 -0.63306,0.12606 -0.0645,0.25702 -0.0785,0.23728 0.24894,0.35273 0.41329,0.14575 0.5279,0.11978 0.6185,-0.14012 z m 32.169771,-0.56127 c 0.56726,-0.32597 1.03158,-0.61172 1.03183,-0.635 2.6e-4,-0.0233 -0.0686,-0.13217 -0.15307,-0.24196 l -0.15353,-0.19963 -0.86022,0.49596 c -0.75093,0.43295 -0.87096,0.53361 -0.94478,0.7923 -0.10243,0.35897 -0.10639,0.44624 -0.0186,0.40922 0.0368,-0.0155 0.53107,-0.29492 1.09832,-0.62089 z m -0.87649,-1.25289 0.47252,-1.76089 -0.18089,-0.35458 c -0.22086,-0.43291 -0.16813,-0.54979 -0.75162,1.66588 l -0.43662,1.65797 0.18657,0.30187 c 0.10262,0.16603 0.19803,0.29035 0.21204,0.27626 0.014,-0.0141 0.23811,-0.81802 0.498,-1.78651 z m -40.798891,-0.73076 c 0.84296,-1.45226 0.89508,-1.56806 0.75271,-1.67217 -0.0841,-0.0615 -0.19871,-0.11185 -0.25462,-0.11185 -0.0755,0 -1.27021,1.95627 -1.8815,3.08079 -0.0523,0.0962 0.34573,0.40096 0.42113,0.32247 0.0311,-0.0324 0.46416,-0.76107 0.96228,-1.61924 z m 1.88029,0.87264 c 0.19613,-0.12367 0.61448,-0.86135 0.61448,-1.08353 0,-0.30978 -0.23623,-0.58931 -0.76203,-0.90168 -0.30808,-0.18303 -0.58213,-0.33278 -0.60899,-0.33278 -0.0269,0 -0.11028,0.0938 -0.18539,0.20841 -0.13619,0.20785 -0.13511,0.20925 0.41198,0.52916 0.36423,0.21299 0.54907,0.3743 0.55015,0.4801 0.002,0.22919 -0.32761,0.72966 -0.48105,0.72966 -0.0716,0 -0.35647,-0.13746 -0.63306,-0.30548 -0.27658,-0.16801 -0.51452,-0.29184 -0.52877,-0.27516 -0.12268,0.14358 -0.21999,0.44329 -0.16251,0.50051 0.0392,0.0391 0.3333,0.20747 0.65347,0.37424 0.59801,0.3115 0.7435,0.32134 1.13172,0.0765 z m 37.704161,-1.40522 c 0.82582,-0.47786 0.91907,-0.55693 1.00835,-0.85491 0.0541,-0.18059 0.085,-0.34173 0.0686,-0.35809 -0.0236,-0.0236 -2.15666,1.18135 -2.24999,1.27098 -0.0349,0.0335 0.17013,0.46858 0.22078,0.46858 0.0232,0 0.45175,-0.23695 0.95223,-0.52656 z M 81.083529,96.835155 c 0.86633,-0.431712 1.4146,-1.346882 1.39733,-2.332428 -0.0112,-0.639279 -0.22378,-1.088167 -1.03693,-2.189598 -3.2264,-4.370264 -5.03816,-8.907634 -5.73052,-14.351537 -0.18356,-1.44331 -0.20866,-5.206184 -0.0435,-6.519334 0.53997,-4.292711 1.674,-7.821862 3.64103,-11.331071 0.69533,-1.240477 1.18004,-1.980652 2.19269,-3.348325 0.81886,-1.105946 0.96833,-1.446734 0.96998,-2.211603 0.002,-0.89256 -0.41517,-1.635115 -1.19694,-2.1309 -0.35521,-0.225262 -0.43362,-0.239767 -1.29621,-0.239767 -1.32993,0 -1.59776,0.175865 -2.83668,1.862667 -3.55864,4.8451 -5.70718,10.277788 -6.5127,16.467666 -0.19356,1.487334 -0.21961,6.109874 -0.0434,7.704667 0.6608,5.981475 2.78952,11.593167 6.23776,16.443838 1.45197,2.042504 1.91027,2.392179 3.13721,2.393668 0.56458,6.85e-4 0.7574,-0.03681 1.12089,-0.217943 z m 51.922821,-0.108516 c 0.48578,-0.313108 0.6732,-0.522209 1.55154,-1.730984 3.05177,-4.199881 5.1687,-9.12874 6.09787,-14.19773 0.41968,-2.289525 0.51264,-3.413257 0.51127,-6.180667 -0.001,-2.677258 -0.0869,-3.775432 -0.46851,-6.010488 -0.89843,-5.262355 -3.21854,-10.609933 -6.4606,-14.890966 -1.0214,-1.348725 -1.44153,-1.614988 -2.55303,-1.618019 -0.56407,-0.0015 -0.75695,0.03555 -1.11636,0.214652 -0.7745,0.385948 -1.32981,1.182349 -1.43322,2.055432 -0.0802,0.677005 0.14188,1.243902 0.87105,2.223661 2.87939,3.868982 4.64617,7.79336 5.5253,12.272825 0.68456,3.48804 0.72908,7.230081 0.12889,10.832903 -0.15725,0.943998 -0.7829,3.42649 -1.07756,4.275667 -1.05938,3.052963 -2.34671,5.486031 -4.41606,8.346368 -0.91421,1.263654 -1.11717,1.756768 -1.0213,2.481372 0.1094,0.82684 0.52889,1.487233 1.22521,1.928826 0.35663,0.226166 0.43143,0.239767 1.31859,0.239767 0.8912,0 0.96025,-0.01272 1.31692,-0.242619 z M 89.189109,90.787457 c 0.91819,-0.444487 1.42059,-1.252431 1.42079,-2.284865 1.6e-4,-0.793928 -0.0857,-0.988601 -0.94015,-2.13064 -2.05936,-2.752655 -3.27453,-5.588613 -3.78509,-8.833694 -0.18855,-1.198426 -0.25774,-3.687338 -0.13541,-4.87138 0.37126,-3.593632 1.67297,-6.898893 3.86539,-9.81491 0.88457,-1.176512 1.00335,-1.438716 0.99876,-2.204709 -0.006,-0.985602 -0.41123,-1.691987 -1.2631,-2.201334 -0.46301,-0.276836 -0.54318,-0.296333 -1.21858,-0.296333 -1.06899,0 -1.50802,0.237238 -2.32602,1.256927 -4.02181,5.013406 -5.8722,11.640197 -5.07471,18.174073 0.52994,4.341852 2.20388,8.415512 4.90737,11.942487 0.93538,1.220301 1.48849,1.545061 2.54128,1.49211 0.40742,-0.02049 0.73317,-0.09398 1.00947,-0.227732 z m 35.178411,0.119769 c 0.60926,-0.180931 1.33807,-0.915993 2.30023,-2.319968 2.50435,-3.654326 3.88912,-7.428395 4.31169,-11.751122 0.12146,-1.242462 0.049,-4.485822 -0.12612,-5.647878 -0.57526,-3.816596 -1.81442,-7.055069 -3.9064,-10.209165 -0.85566,-1.290097 -1.55481,-2.156649 -1.96477,-2.435226 -0.74925,-0.509125 -1.74384,-0.578942 -2.54491,-0.178643 -0.94686,0.473153 -1.41114,1.223583 -1.41406,2.285572 -0.002,0.743635 0.17059,1.149498 0.86757,2.039798 1.09821,1.402799 2.21468,3.400757 2.85605,5.110998 0.40865,1.089663 0.84104,2.803566 1.02844,4.076478 0.20418,1.386934 0.20464,4.121098 9e-4,5.436653 -0.53324,3.443241 -1.73483,6.260534 -3.91193,9.172058 -0.86182,1.152559 -1.04062,1.800087 -0.75895,2.748588 0.40692,1.370242 1.82709,2.098057 3.26226,1.671857 z m -24.20829,-2.764468 c 0.68185,-0.521219 0.93739,-1.407699 0.62283,-2.160564 -0.17568,-0.420463 -0.35032,-0.5958 -1.392961,-1.398544 -2.99881,-2.308825 -5.02557,-5.346506 -5.54161,-8.305686 -0.27891,-1.5994 -0.11443,-3.540426 0.42939,-5.067156 0.31933,-0.896495 1.05678,-2.276328 1.70773,-3.1953 0.52341,-0.738909 2.44104,-2.767148 2.79572,-2.956968 0.17973,-0.09619 0.14637,-0.127912 6.419521,6.10425 2.93268,2.913518 4.34352,4.25809 4.56506,4.350657 1.29889,0.542713 2.73356,-0.523204 2.546,-1.891605 -0.0273,-0.199193 -0.10421,-0.466287 -0.17091,-0.593543 -0.0667,-0.127256 -2.82007,-2.921538 -6.11859,-6.209516 -6.529891,-6.509015 -6.216041,-6.238178 -7.120631,-6.144816 -0.55128,0.0569 -0.89736,0.269907 -2.30568,1.41912 -3.28186,2.678059 -5.31676,5.763198 -6.24662,9.4706 -0.21258,0.847574 -0.22445,1.005772 -0.22592,3.011238 -10e-4,1.917388 0.0167,2.192392 0.19205,2.921 0.55043,2.286748 1.52553,4.322039 2.96113,6.180667 1.08276,1.40182 3.1326,3.348217 4.62456,4.391194 0.48879,0.341693 0.51773,0.350139 1.19992,0.350139 0.65839,0 0.71999,-0.01601 1.059011,-0.275167 z m 13.43861,0.0077 c 1.31978,-0.890967 3.11693,-2.521714 4.18335,-3.795989 1.6957,-2.026208 2.8004,-4.109607 3.42876,-6.466447 0.21492,-0.806106 0.23052,-0.989382 0.25931,-3.045518 0.0279,-1.994544 0.0144,-2.263589 -0.15309,-3.045864 -0.66682,-3.114428 -2.32545,-5.972436 -4.92559,-8.487333 -1.67604,-1.6211 -2.97828,-2.563515 -3.64633,-2.638814 -0.94547,-0.106568 -1.80388,0.531468 -2.0404,1.516587 -0.0781,0.325495 0.091,1.019166 0.32636,1.338139 0.11071,0.150051 0.49427,0.497469 0.85237,0.77204 3.1334,2.402517 4.96088,4.910755 5.73016,7.864707 0.22998,0.883115 0.25414,1.103588 0.25971,2.370667 0.005,1.236968 -0.0193,1.499423 -0.2161,2.291111 -0.58613,2.358029 -1.58081,4.036786 -3.62814,6.123336 -0.68004,0.693062 -1.27657,1.245512 -1.32563,1.227666 -0.049,-0.01785 -2.42844,-2.358138 -5.28751,-5.20065 -3.22495,-3.206265 -5.31887,-5.225403 -5.51586,-5.318881 -0.18143,-0.0861 -0.51161,-0.150678 -0.77034,-0.150678 -1.290811,0 -2.181401,1.328708 -1.698211,2.533648 0.0903,0.225287 1.757271,1.936471 5.863171,6.01883 3.15531,3.137227 5.92133,5.851852 6.1467,6.0325 0.399,0.319818 0.42753,0.328451 1.08542,0.328451 0.61824,0 0.7093,-0.02273 1.07189,-0.267508 z M 125.2555,37.998501 c -0.0426,-0.360225 -0.0894,-0.446351 -0.31204,-0.574143 -0.14408,-0.08269 -0.27715,-0.135158 -0.29571,-0.116595 -0.0186,0.01856 -0.007,1.219932 0.0249,2.669708 l 0.0587,2.635958 0.26171,0.152894 0.26171,0.152894 0.0254,-2.248459 c 0.014,-1.236652 0.003,-2.439168 -0.0247,-2.672257 z m 1.33653,2.649858 0.97478,-1.753274 -0.28813,-0.170003 -0.28813,-0.170003 -0.11679,0.18761 c -0.0642,0.103186 -0.3881,0.678061 -0.71972,1.277502 l -0.60294,1.089891 v 0.681053 c 0,0.374579 0.0149,0.665178 0.0331,0.645776 0.0182,-0.0194 0.47173,-0.824252 1.00785,-1.788552 z m -38.661851,1.474558 0.26741,-0.144618 -1.10132,-1.989666 c -0.60572,-1.094317 -1.11706,-2.00602 -1.13631,-2.026008 -0.0192,-0.01999 -0.16784,0.02701 -0.33022,0.104445 l -0.29523,0.140786 0.29554,0.530555 c 0.16255,0.291805 0.66735,1.206604 1.12179,2.032886 0.45444,0.826282 0.84531,1.50096 0.86859,1.499285 0.0233,-0.0017 0.16267,-0.06812 0.30975,-0.147665 z m 35.830451,-1.831464 c 0.61528,-1.127016 0.68916,-1.309945 0.68385,-1.693333 -0.0118,-0.85027 -0.0785,-0.805071 -0.83525,0.565669 -0.39184,0.709781 -0.82302,1.489306 -0.95816,1.732278 l -0.24572,0.441767 0.27954,0.169999 c 0.15375,0.0935 0.30348,0.142354 0.33274,0.108566 0.0293,-0.03379 0.36361,-0.630014 0.743,-1.324946 z m -33.646521,0.699589 c 0.11861,-0.05404 0.21565,-0.126689 0.21565,-0.161441 0,-0.03475 -0.1112,-0.311027 -0.24711,-0.613947 l -0.24711,-0.550763 0.43761,-0.188567 c 0.24069,-0.103711 0.59823,-0.257552 0.79453,-0.341869 0.34697,-0.149033 0.3544,-0.160498 0.26683,-0.411718 -0.0496,-0.142129 -0.12348,-0.279057 -0.1643,-0.304285 -0.0408,-0.02523 -0.40119,0.09459 -0.80082,0.266272 -0.49517,0.212726 -0.75417,0.284562 -0.81319,0.225548 -0.13229,-0.132295 0.002,-2.032494 0.14752,-2.088361 0.0624,-0.02396 0.44792,0.239458 0.85662,0.585373 l 0.74309,0.628936 0.42333,1.017666 c 0.23284,0.559717 0.4538,1.018059 0.49104,1.01854 0.0372,4.8e-4 0.1802,-0.0573 0.31769,-0.128398 0.24232,-0.125311 0.24644,-0.137631 0.13422,-0.402166 -0.0637,-0.150093 -0.26378,-0.629554 -0.44469,-1.065468 -0.31978,-0.770555 -0.35127,-0.811836 -1.13326,-1.485994 -1.20355,-1.037589 -1.12228,-0.997917 -1.62022,-0.790984 -0.23081,0.09592 -0.45116,0.235259 -0.48967,0.309642 -0.0385,0.07438 -0.0965,0.649737 -0.12877,1.278565 l -0.0588,1.143323 0.42984,1.003893 c 0.56625,1.322467 0.49393,1.236631 0.88992,1.056203 z m 32.389091,-0.960322 0.44843,-1.05858 -0.0596,-1.203145 c -0.0328,-0.661729 -0.10061,-1.252612 -0.15079,-1.313072 -0.1375,-0.165677 -0.83561,-0.453122 -0.94589,-0.389469 -0.0532,0.03068 -0.49669,0.389938 -0.98564,0.79836 l -0.889,0.742586 -0.48097,1.10726 -0.48098,1.107259 0.30082,0.12569 c 0.16545,0.06913 0.3095,0.12569 0.32011,0.12569 0.0106,0 0.12667,-0.257175 0.25792,-0.5715 0.13125,-0.314325 0.24744,-0.583545 0.25819,-0.598268 0.0108,-0.01472 0.37582,0.125879 0.81124,0.312449 l 0.79167,0.339218 0.10202,-0.227782 c 0.0561,-0.125281 0.10373,-0.27157 0.10583,-0.325088 0.002,-0.05352 -0.33908,-0.242502 -0.75818,-0.419966 -0.4191,-0.177464 -0.762,-0.351216 -0.762,-0.386116 0,-0.160743 1.52297,-1.42003 1.65574,-1.369077 0.10805,0.04146 0.20693,0.785775 0.20693,1.557708 0,0.397718 -0.0787,0.671952 -0.42531,1.481378 -0.23393,0.54632 -0.4149,0.999412 -0.40217,1.006872 0.12353,0.07239 0.46604,0.205913 0.53982,0.210442 0.0513,0.0032 0.29513,-0.470631 0.54176,-1.052849 z M 93.750049,39.479124 c 0.0445,-0.04351 -0.2031,-0.960073 -0.59888,-2.216509 l -0.67483,-2.142316 -0.24019,0.0178 c -0.1321,0.0098 -0.27635,0.05397 -0.32055,0.09817 -0.0507,0.05072 0.16088,0.856293 0.57356,2.183537 0.35966,1.156738 0.67279,2.134823 0.69584,2.173521 0.0475,0.07976 0.44971,-0.0015 0.56505,-0.114203 z m -8.46917,-0.442501 c 0.14935,-0.112023 0.1504,-0.133511 0.019,-0.387627 -0.0765,-0.147967 -0.15993,-0.26903 -0.18537,-0.26903 -0.0415,0 -0.78187,0.408664 -0.87702,0.484077 -0.0212,0.01683 0.0314,0.16066 0.11702,0.319613 l 0.15564,0.289005 0.30631,-0.15872 c 0.16847,-0.08729 0.37747,-0.212088 0.46443,-0.277318 z m 33.199391,0.175794 c 0.19001,-0.149461 0.46683,-0.612475 0.46683,-0.780832 0,-0.04873 -0.5972,-0.248159 -0.62353,-0.208224 -0.0107,0.01628 -0.0645,0.13438 -0.11951,0.262438 -0.10656,0.248112 -0.23952,0.279167 -0.66851,0.156136 -0.23942,-0.06866 -0.27258,-0.05619 -0.31658,0.119134 -0.027,0.107708 -0.0717,0.25457 -0.0992,0.326361 -0.0361,0.0941 0.0288,0.153235 0.23247,0.211897 0.48836,0.140628 0.87686,0.110697 1.12807,-0.08691 z m -1.517,-0.459501 c 0.0477,-0.238396 0.0266,-0.266482 -0.29474,-0.39271 -0.27138,-0.1066 -0.34472,-0.178551 -0.3397,-0.333262 0.004,-0.108521 0.20355,-0.787861 0.4445,-1.509645 0.47858,-1.433579 0.45769,-1.409789 1.08362,-1.234531 0.20535,0.0575 0.22668,0.03832 0.28133,-0.252993 0.0687,-0.366166 0.005,-0.429184 -0.51353,-0.507613 -0.40629,-0.06146 -0.80188,0.105421 -1.01273,0.427212 -0.19147,0.292221 -0.96692,2.820057 -0.96692,3.151994 0,0.355568 0.3525,0.754633 0.80433,0.910577 0.38298,0.132182 0.4415,0.102684 0.51384,-0.259029 z m -29.963981,-0.657126 0.43547,-0.241842 -0.16837,-0.285367 -0.16838,-0.285368 -0.31029,0.160749 c -0.17066,0.08841 -0.38261,0.214972 -0.471,0.281245 -0.15721,0.117876 -0.15727,0.126326 -0.002,0.388439 0.087,0.147368 0.17881,0.258052 0.20391,0.245964 0.0251,-0.01209 0.24159,-0.130806 0.48109,-0.26382 z m 27.755651,0.100627 c 0.48837,-0.384155 0.62267,-1.229785 0.26227,-1.651455 -0.1125,-0.131631 -0.58717,-0.525079 -1.05481,-0.874329 -0.46765,-0.34925 -0.8703,-0.69215 -0.89478,-0.762 -0.0245,-0.06985 -0.013,-0.2413 0.0254,-0.381 0.0665,-0.241772 0.0906,-0.253467 0.49913,-0.242913 0.42593,0.011 0.42963,0.0088 0.48453,-0.283819 0.0304,-0.162197 0.033,-0.317213 0.006,-0.34448 -0.0273,-0.02727 -0.26967,-0.0655 -0.53867,-0.08495 -0.43174,-0.03123 -0.51992,-0.0094 -0.7519,0.185754 -0.18114,0.152414 -0.29408,0.351494 -0.36344,0.640641 -0.17209,0.717343 -0.0582,0.901558 1.10682,1.789434 1.05744,0.805928 1.1444,0.935137 0.91628,1.361384 -0.0813,0.151899 -0.14475,0.166704 -0.508,0.118518 -0.36227,-0.04806 -0.41525,-0.03584 -0.41626,0.09602 -6.3e-4,0.0831 -0.0234,0.233921 -0.0505,0.335168 -0.041,0.152731 -0.008,0.190227 0.19166,0.220147 0.58838,0.08803 0.85789,0.05774 1.08654,-0.122115 z m -1.52726,-0.09162 c 0.16117,-0.523142 0.14853,-0.55817 -0.22807,-0.632176 -0.31693,-0.06228 -0.36364,-0.100975 -0.38899,-0.322275 -0.0334,-0.292012 -0.13522,-0.375955 -0.45802,-0.377752 -0.21775,-0.0012 -0.23281,0.02202 -0.23242,0.358537 5.3e-4,0.451722 0.25401,0.787263 0.71925,0.952085 0.42506,0.150591 0.54713,0.155069 0.58825,0.02158 z m -10.8229,-0.524739 c 0.0259,-0.06741 -0.0515,-1.076068 -0.17199,-2.241451 -0.12046,-1.165383 -0.21903,-2.157975 -0.21903,-2.205761 0,-0.04778 -0.1524,-0.08688 -0.33866,-0.08688 -0.21453,0 -0.33864,0.03879 -0.3386,0.105833 4e-5,0.05821 0.0953,1.039284 0.2116,2.180167 0.11634,1.140883 0.21155,2.141008 0.21159,2.2225 9e-5,0.190784 0.57298,0.213514 0.64509,0.02559 z M 94.370269,37.23744 c 1.08605,-0.350225 1.30737,-0.745129 0.99489,-1.775253 -0.14792,-0.487662 -0.4712,-0.861887 -0.80856,-0.935985 -0.18714,-0.0411 -1.67086,0.308342 -1.84344,0.434165 -0.049,0.03569 0.16518,0.625683 0.22667,0.624516 0.0313,-5.94e-4 0.35432,-0.09605 0.7178,-0.212133 0.78573,-0.250931 0.92083,-0.209726 1.071,0.326644 0.16946,0.60524 0.12791,0.662812 -0.6629,0.918619 -0.3888,0.125764 -0.72066,0.24242 -0.73747,0.259234 -0.075,0.075 0.14977,0.645468 0.24294,0.616587 0.0566,-0.01754 0.41618,-0.132921 0.79907,-0.256394 z m 11.352771,-0.106309 c -0.0252,-0.304606 -0.04,-0.318535 -0.36494,-0.342986 -0.18902,-0.01422 -0.38544,-0.08685 -0.4445,-0.164349 -0.13314,-0.174694 -0.14878,-2.746713 -0.0182,-2.990731 0.0668,-0.124873 0.17864,-0.163768 0.47078,-0.163768 h 0.38313 l -0.0263,-0.3175 c -0.0258,-0.31199 -0.0329,-0.317899 -0.40728,-0.34053 -0.48518,-0.02933 -0.89473,0.211101 -1.06866,0.627361 -0.1008,0.241243 -0.12167,0.616795 -0.10074,1.81257 0.0241,1.375676 0.042,1.529269 0.2039,1.747023 0.24255,0.32625 0.5107,0.447687 0.99178,0.449162 l 0.40728,0.0012 z m 1.2947,0.124068 c 0.41987,-0.282306 0.4898,-0.587105 0.4898,-2.134902 0,-0.832034 -0.039,-1.465933 -0.10105,-1.643069 -0.14296,-0.407993 -0.47154,-0.621105 -1.02888,-0.667325 l -0.46918,-0.03891 v 0.349151 c 0,0.346789 0.002,0.34916 0.3175,0.350448 0.56769,0.0023 0.56859,0.0047 0.5981,1.592648 0.0303,1.630045 0.004,1.708055 -0.58298,1.708055 -0.33161,0 -0.33262,10e-4 -0.33262,0.338667 v 0.338667 h 0.41081 c 0.28748,0 0.49718,-0.05807 0.6985,-0.193432 z m 12.64819,-1.156287 c 0.0817,-0.483689 -0.14442,-0.914206 -0.58541,-1.114496 -0.48463,-0.220112 -0.61038,-0.201996 -0.71679,0.103274 -0.1044,0.299465 -0.064,0.413607 0.14619,0.413607 0.08,0 0.23135,0.06013 0.33627,0.133619 0.15706,0.110008 0.18131,0.183992 0.13728,0.418696 -0.0503,0.26799 -0.0365,0.289686 0.23024,0.361952 0.36266,0.09826 0.38473,0.08281 0.45222,-0.316652 z m -3.97427,-1.492951 c -0.0649,-0.347374 -0.4291,-0.676631 -0.88061,-0.796221 -0.20261,-0.05366 -0.38521,-0.08074 -0.40579,-0.06016 -0.0206,0.02057 -0.059,0.170455 -0.0854,0.33307 -0.046,0.283497 -0.0358,0.297956 0.24911,0.351397 0.34917,0.06551 0.5204,0.239458 0.46064,0.467981 -0.0344,0.131435 0.0178,0.178246 0.26517,0.23792 0.2695,0.06501 0.31656,0.05256 0.37675,-0.09968 0.0378,-0.09568 0.0469,-0.29112 0.0201,-0.434305 z m -14.54027,-0.841199 c 0.0146,-0.01329 6e-5,-0.165754 -0.0324,-0.338811 l -0.059,-0.31465 -0.51742,0.05854 c -0.28458,0.0322 -0.52599,0.06712 -0.53648,0.07761 -0.0105,0.01049 0.004,0.16305 0.0328,0.339023 l 0.0519,0.319952 0.51697,-0.05875 c 0.28433,-0.03231 0.52895,-0.06962 0.54359,-0.08291 z m 1.95246,-0.179048 c 0.21618,-0.04324 0.26434,-0.09357 0.26328,-0.275167 -0.002,-0.364498 -0.0848,-0.414394 -0.61253,-0.369602 l -0.48684,0.04132 v 0.328182 c 0,0.316306 0.0104,0.328183 0.28575,0.328183 0.15717,0 0.40482,-0.02381 0.55034,-0.05292 z"
       id="path1"
       inkscape:export-filename="..\Downloads\Back.svg"
       inkscape:export-xdpi="96"
       inkscape:export-ydpi="96" /><path
       style="fill:#ffffff"
       d="m 103.14077,280.85461 c -11.836169,-0.88771 -22.425789,-4.46019 -32.026279,-10.80427 -14.19295,-9.37882 -24.29044,-23.98637 -28.03839,-40.56176 -1.5347,-6.78725 -1.98362,-14.29216 -1.27176,-21.26084 0.93028,-9.10682 3.78358,-18.09237 8.18921,-25.78928 2.99722,-5.23633 6.23132,-9.52493 10.30265,-13.66193 3.37424,-3.42867 6.47588,-6.03187 10.15166,-8.52027 10.61155,-7.18373 22.64432,-11.02943 35.529239,-11.35524 7.61941,-0.19266 15.52491,1.00904 22.64963,3.44294 12.70357,4.33971 23.54345,12.20334 31.68095,22.9825 4.51651,5.98269 8.22246,13.28823 10.39381,20.48933 1.44906,4.80569 2.31719,9.60147 2.67443,14.77434 0.12741,1.84485 0.12962,7.0568 0.004,8.763 -0.2988,4.04942 -0.86152,7.64958 -1.78653,11.43 -2.71192,11.08323 -8.38164,21.39227 -16.34985,29.72829 -8.77586,9.18096 -19.73108,15.52672 -32.12116,18.60604 -3.2698,0.81264 -7.15193,1.41517 -10.99625,1.70668 -1.76654,0.13396 -7.35268,0.1529 -8.98508,0.0305 z m -9.069989,-4.62665 c 0.0237,-0.0815 0.75652,-2.96757 1.62849,-6.4135 0.87198,-3.44593 1.60763,-6.29063 1.63479,-6.32155 0.0272,-0.0309 0.56373,0.0361 1.19238,0.149 6.019189,1.08067 11.724449,1.09489 17.695329,0.0441 0.76835,-0.13522 1.40996,-0.23377 1.4258,-0.21902 0.0158,0.0148 0.76437,2.90871 1.66341,6.43101 0.89904,3.52229 1.65119,6.42074 1.67144,6.44099 0.0203,0.0203 0.66236,-0.11702 1.42692,-0.30505 6.22769,-1.53155 12.28676,-4.08023 17.66726,-7.43153 0.57044,-0.3553 1.03717,-0.68038 1.03717,-0.72238 0,-0.042 -1.4859,-2.58389 -3.302,-5.64864 -1.8161,-3.06474 -3.302,-5.60629 -3.302,-5.64789 0,-0.0416 0.35242,-0.31935 0.78317,-0.61722 3.87589,-2.68034 7.29945,-5.80177 10.25556,-9.3505 0.89165,-1.07038 2.26618,-2.88433 2.96738,-3.91598 0.22941,-0.33753 0.44758,-0.61368 0.48481,-0.61368 0.0549,0 8.40122,4.91712 10.71341,6.31165 l 0.60867,0.36709 0.50271,-0.82054 c 2.907,-4.74488 5.31257,-10.10701 6.86326,-15.29854 0.5813,-1.94613 1.09674,-3.93584 1.03023,-3.97694 -0.0299,-0.0185 -2.89101,-0.7644 -6.35797,-1.65757 -3.46696,-0.89318 -6.31862,-1.6378 -6.33702,-1.65473 -0.0184,-0.0169 0.0855,-0.74597 0.23094,-1.6201 0.58033,-3.48845 0.72839,-5.26696 0.72438,-8.70132 -0.004,-3.49984 -0.1963,-5.73778 -0.76964,-8.96075 -0.17044,-0.95814 -0.19919,-1.27106 -0.12122,-1.31925 0.0562,-0.0348 2.89164,-0.77992 6.30094,-1.65594 3.4093,-0.87602 6.24302,-1.61585 6.29716,-1.64408 0.11654,-0.0608 -0.63853,-3.12695 -1.32481,-5.37981 -1.44309,-4.73718 -3.9783,-10.28374 -6.49051,-14.19997 l -0.41555,-0.64781 -5.54345,3.29889 c -3.0489,1.81439 -5.603,3.33215 -5.67578,3.3728 -0.10562,0.059 -0.31568,-0.18795 -1.04092,-1.22374 -3.33421,-4.76188 -7.63375,-9.05974 -12.37342,-12.36857 -0.65193,-0.45512 -1.19848,-0.83781 -1.21456,-0.85042 -0.0161,-0.0126 1.45998,-2.53631 3.28014,-5.60823 1.82015,-3.07192 3.32822,-5.63687 3.35126,-5.69988 0.0263,-0.072 -0.13838,-0.22049 -0.44381,-0.39994 -0.26713,-0.15695 -1.02761,-0.60364 -1.68995,-0.99265 -4.20331,-2.46867 -9.1823,-4.58607 -13.99341,-5.95093 -1.13459,-0.32187 -4.2299,-1.0588 -4.26805,-1.01613 -0.0159,0.0178 -0.73455,2.88275 -1.59693,6.36649 -0.86238,3.48375 -1.58264,6.34876 -1.60057,6.36669 -0.0179,0.0179 -0.68344,-0.0786 -1.47892,-0.21453 -6.01931,-1.02849 -11.54797,-1.02885 -17.612339,-10e-4 -0.78404,0.13286 -1.4489,0.21652 -1.47746,0.18591 -0.0286,-0.0306 -0.7506,-2.89412 -1.60452,-6.36334 -0.85392,-3.46921 -1.56267,-6.32224 -1.57501,-6.34006 -0.0324,-0.0467 -2.49811,0.54804 -3.8382,0.92584 -3.96322,1.11731 -7.81213,2.63256 -11.51467,4.53315 -1.41578,0.72676 -4.826,2.72899 -4.826,2.83349 0,0.0313 1.51089,2.52901 3.35754,5.55043 1.84664,3.02142 3.37056,5.55064 3.38647,5.62049 0.0188,0.0825 -0.30359,0.34924 -0.92115,0.762 -3.07494,2.05519 -6.87483,5.46375 -9.52133,8.54077 -1.10862,1.28896 -2.72271,3.38659 -3.49715,4.5448 -0.24741,0.37002 -0.46044,0.68591 -0.4734,0.70199 -0.0129,0.0161 -2.53694,-1.45998 -5.60886,-3.28014 -3.07192,-1.82015 -5.63686,-3.32885 -5.69988,-3.35266 -0.0772,-0.0292 -0.42223,0.47445 -1.05806,1.54447 -2.28019,3.83724 -3.82157,7.03646 -5.33295,11.06886 -1.03282,2.75556 -2.35882,7.24526 -2.18459,7.39677 0.0435,0.0378 2.86033,0.7822 6.2597,1.65421 3.39936,0.87202 6.24893,1.60553 6.33237,1.63003 0.0978,0.0287 0.13519,0.0966 0.10526,0.19088 -0.11873,0.37408 -0.56101,3.25848 -0.71546,4.66602 -0.53571,4.8818 -0.32587,10.32382 0.57457,14.90133 0.087,0.44238 0.1346,0.82997 0.10574,0.86129 -0.0289,0.0313 -2.90046,0.7902 -6.38132,1.68638 -4.65139,1.19754 -6.32883,1.66133 -6.32883,1.74982 0,0.22054 0.7655,3.17777 1.15592,4.46551 1.36328,4.49647 3.18148,8.71324 5.51254,12.78467 0.63427,1.10781 1.70724,2.83633 1.76065,2.83633 0.0158,0 2.53579,-1.49031 5.59998,-3.31181 3.06418,-1.8215 5.61591,-3.32939 5.6705,-3.35087 0.0546,-0.0215 0.33401,0.31008 0.62093,0.73679 2.84969,4.23809 7.15173,8.73091 11.38715,11.89212 0.6985,0.52134 1.56738,1.1474 1.93084,1.39124 l 0.66085,0.44334 -0.23213,0.39643 c -0.12768,0.21803 -1.62019,2.73868 -3.3167,5.60143 -1.6965,2.86275 -3.10159,5.24939 -3.12241,5.30364 -0.0428,0.11167 1.76262,1.24079 3.61388,2.26008 4.81009,2.64839 9.3636,4.45735 15.15533,6.02072 0.76835,0.20741 1.42301,0.37945 1.4548,0.38233 0.0318,0.003 0.0772,-0.0615 0.10088,-0.14294 z m 10.509319,-18.066 c -8.347869,-0.53984 -16.636749,-3.65752 -23.294389,-8.76168 -3.1496,-2.41468 -6.18519,-5.47918 -8.45735,-8.5379 -4.19264,-5.64403 -6.96051,-12.21972 -8.03807,-19.09625 -0.3316,-2.11616 -0.40392,-3.06987 -0.44605,-5.8826 -0.0556,-3.7116 0.0806,-5.59854 0.62031,-8.5954 1.17485,-6.52351 3.92605,-12.81938 7.93607,-18.161 6.73881,-8.97656 16.65121,-14.98963 27.638709,-16.76624 2.96398,-0.47926 6.84536,-0.66625 9.75577,-0.47001 9.47834,0.63913 18.16112,4.19628 25.44234,10.42318 1.27622,1.09142 3.64051,3.47348 4.70871,4.7441 6.00496,7.14281 9.44569,15.54866 10.15465,24.80822 0.13333,1.7414 0.0613,6.31876 -0.12375,7.86775 -1.05589,8.83685 -4.31745,16.43131 -9.96268,23.19785 -1.14468,1.37205 -3.64486,3.88337 -4.9886,5.01084 -4.37834,3.67365 -9.02577,6.30383 -14.23947,8.05873 -5.33971,1.79732 -11.00065,2.52938 -16.7062,2.16041 z m 11.80643,-9.20316 c 0.30017,-0.10834 0.73832,-0.32551 0.97367,-0.4826 0.23535,-0.15708 3.00479,-2.86879 6.15433,-6.02601 5.55472,-5.56828 5.73535,-5.75944 6.02429,-6.3754 0.16382,-0.34925 0.33966,-0.8369 0.39074,-1.08366 0.0659,-0.31846 0.0929,-6.48693 0.0929,-21.25472 0,-22.95933 0.0411,-21.23341 -0.53156,-22.31639 -0.22529,-0.42606 -1.24065,-1.4929 -5.88506,-6.1835 -3.08704,-3.11773 -5.82225,-5.82527 -6.07825,-6.01676 -0.256,-0.19148 -0.70216,-0.44095 -0.99146,-0.55439 l -0.52601,-0.20624 -8.255,-0.0239 -8.254999,-0.0238 -0.67853,0.21085 c -0.41311,0.12838 -0.8486,0.33775 -1.11333,0.53526 -0.61503,0.45888 -11.53202,11.31608 -11.91448,11.84923 -0.17373,0.24218 -0.39937,0.66128 -0.50143,0.93133 l -0.18556,0.49102 v 21.336 c 0,20.47642 0.006,21.35395 0.15533,21.78157 0.0854,0.24507 0.30158,0.66417 0.48034,0.93134 0.19583,0.2927 2.63309,2.76793 6.13247,6.22803 5.63114,5.56793 5.82668,5.75116 6.44037,6.0347 0.41249,0.19058 0.84695,0.31782 1.24753,0.36535 0.33804,0.0401 4.138879,0.0677 8.446289,0.0613 l 7.83167,-0.0116 z m -13.5967,-9.07503 c -0.81758,-0.16722 -1.14636,-0.43371 -4.138419,-3.35445 -1.59743,-1.55935 -2.96485,-2.96252 -3.0387,-3.11815 -0.15768,-0.33229 -0.17327,-0.7439 -0.038,-1.00378 0.10596,-0.20359 24.007269,-24.19898 24.409369,-24.50543 0.29451,-0.22446 0.49316,-0.24096 0.67783,-0.0563 0.12143,0.12143 0.13208,1.25611 0.11188,11.91683 l -0.0223,11.78263 -0.27995,0.59122 c -0.25829,0.54548 -0.53672,0.84821 -3.59834,3.91228 -3.07617,3.07865 -3.36164,3.3414 -3.91105,3.59977 l -0.59266,0.27873 -4.61434,0.0142 c -2.53788,0.008 -4.77225,-0.0181 -4.96527,-0.0576 z M 94.366971,219.6788 c -0.0969,-0.11679 -0.1201,-2.0076 -0.13973,-11.40883 -0.0159,-7.60133 0.006,-11.45817 0.0658,-11.85056 0.18075,-1.1763 0.21127,-1.21479 3.84287,-4.84673 3.024419,-3.0247 3.362699,-3.33663 3.902359,-3.59834 l 0.59089,-0.28655 h 4.91423 4.91422 l 0.57667,0.2839 c 0.50287,0.24756 0.93606,0.63492 3.38489,3.02679 1.80421,1.76225 2.8604,2.85643 2.95416,3.06044 0.16974,0.3693 0.18553,0.81255 0.0407,1.14308 -0.11409,0.26044 -23.704369,24.00027 -24.223549,24.37711 -0.37361,0.27119 -0.65316,0.30502 -0.8236,0.0997 z"
       id="path2"
       inkscape:export-filename="Font.svg"
       inkscape:export-xdpi="96"
       inkscape:export-ydpi="96" /><path
       style="fill:#ffffff"
       d="m -77.82375,134.74445 c -11.83616,-0.88772 -22.42579,-4.4602 -32.02628,-10.80428 -14.19295,-9.37881 -24.29044,-23.986365 -28.03839,-40.561755 -1.5347,-6.78725 -1.98362,-14.29216 -1.27176,-21.26084 0.93028,-9.10682 3.78358,-18.09237 8.18922,-25.78928 2.99722,-5.23633 6.23131,-9.52493 10.30264,-13.66193 3.37424,-3.42867 6.47589,-6.03187 10.15166,-8.52027 10.61155,-7.1837297 22.64432,-11.0294297 35.52924,-11.3552397 7.61941,-0.19266 15.52491,1.00905 22.64963,3.44294 12.703567,4.3397097 23.543447,12.2033497 31.680947,22.9824997 4.51651,5.98269 8.22246,13.28823 10.39381,20.48933 1.4490603,4.80569 2.3171903,9.60147 2.6744303,14.77434 0.12741,1.84485 0.12962,7.0568 0.004,8.763 -0.2988,4.04942 -0.86152,7.64959 -1.78653,11.43 -2.7119203,11.08323 -8.3816403,21.392275 -16.3498503,29.728295 -8.77586,9.18096 -19.731077,15.52672 -32.121157,18.60603 -3.2698,0.81265 -7.15193,1.41518 -10.99625,1.70669 -1.76654,0.13396 -7.35268,0.1529 -8.98508,0.0305 z m -9.06999,-4.62665 c 0.0237,-0.0815 0.75652,-2.96757 1.62849,-6.4135 0.87198,-3.44594 1.60763,-6.29063 1.63479,-6.32155 0.0272,-0.0309 0.56373,0.0361 1.19238,0.149 6.01919,1.08067 11.72445,1.09489 17.69533,0.0441 0.76835,-0.13522 1.40996,-0.23378 1.4258,-0.21902 0.0158,0.0148 0.76437,2.90871 1.66341,6.431 0.89904,3.5223 1.65119,6.42074 1.67144,6.44099 0.0203,0.0202 0.66236,-0.11702 1.42692,-0.30504 6.22769,-1.53155 12.28676,-4.08023 17.667257,-7.43153 0.57045,-0.35531 1.03717,-0.68038 1.03717,-0.72238 0,-0.042 -1.485897,-2.5839 -3.301997,-5.64864 -1.8161,-3.06475 -3.302,-5.6063 -3.302,-5.64789 0,-0.0416 0.35243,-0.31935 0.78317,-0.61723 3.87589,-2.68034 7.299447,-5.80176 10.255567,-9.35049 0.89164,-1.070385 2.26617,-2.884335 2.96737,-3.915985 0.22941,-0.33753 0.44758,-0.61368 0.48481,-0.61368 0.0549,0 8.40122,4.917125 10.71341,6.311655 l 0.60866,0.36709 0.50272,-0.82054 c 2.907,-4.744885 5.31257,-10.107015 6.86326,-15.298545 0.5813,-1.94612 1.09674,-3.93584 1.03023,-3.97694 -0.0299,-0.0185 -2.89101,-0.7644 -6.35797,-1.65757 -3.46696,-0.89318 -6.31862,-1.6378 -6.33702,-1.65473 -0.0184,-0.0169 0.0855,-0.74597 0.23094,-1.6201 0.58033,-3.48845 0.72839,-5.26696 0.72438,-8.70132 -0.004,-3.49984 -0.1963,-5.73778 -0.76964,-8.96075 -0.17044,-0.95814 -0.19919,-1.27106 -0.12122,-1.31925 0.0562,-0.0347 2.89164,-0.77992 6.30094,-1.65594 3.4093,-0.87602 6.24302,-1.61585 6.29716,-1.64408 0.11654,-0.0608 -0.63853,-3.12695 -1.32481,-5.37981 -1.44309,-4.73718 -3.9783,-10.28374 -6.49051,-14.19997 l -0.41555,-0.6478 -5.54345,3.29888 c -3.0489,1.81439 -5.603,3.33215 -5.67577,3.37281 -0.10563,0.059 -0.31569,-0.18796 -1.04093,-1.22375 -3.33421,-4.76188 -7.63375,-9.05974 -12.373417,-12.36857 -0.65193,-0.45512 -1.19848,-0.83781 -1.21456,-0.85042 -0.0161,-0.0126 1.45998,-2.53631 3.28014,-5.60823 1.820147,-3.07192 3.328217,-5.63687 3.351257,-5.69988 0.0263,-0.072 -0.13838,-0.22049 -0.44381,-0.39994 -0.26713,-0.15695 -1.02761,-0.60364 -1.689947,-0.99265 -4.20331,-2.46867 -9.1823,-4.58607 -13.99341,-5.9509297 -1.13459,-0.32187 -4.2299,-1.0588 -4.26805,-1.01613 -0.0159,0.0178 -0.73455,2.8827497 -1.59693,6.3664897 -0.86238,3.48375 -1.58264,6.34876 -1.60056,6.36669 -0.0179,0.0179 -0.68345,-0.0786 -1.47893,-0.21453 -6.01931,-1.02849 -11.54797,-1.02885 -17.61234,-0.001 -0.78404,0.13286 -1.44889,0.21652 -1.47746,0.18591 -0.0286,-0.0306 -0.7506,-2.89412 -1.60452,-6.36334 -0.85391,-3.46921 -1.56267,-6.3222397 -1.57501,-6.3400597 -0.0324,-0.0467 -2.49811,0.54804 -3.8382,0.92584 -3.96322,1.11731 -7.81212,2.6325597 -11.51467,4.5331497 -1.41578,0.72676 -4.826,2.72899 -4.826,2.83349 0,0.0313 1.5109,2.52901 3.35754,5.55043 1.84665,3.02142 3.37056,5.55064 3.38647,5.62049 0.0188,0.0825 -0.30359,0.34924 -0.92114,0.762 -3.07495,2.05519 -6.87484,5.46375 -9.52134,8.54077 -1.10862,1.28896 -2.72271,3.38659 -3.49715,4.5448 -0.24741,0.37002 -0.46044,0.68591 -0.47339,0.70199 -0.013,0.0161 -2.53695,-1.45998 -5.60887,-3.28014 -3.07192,-1.82015 -5.63686,-3.32885 -5.69988,-3.35266 -0.0772,-0.0292 -0.42223,0.47445 -1.05806,1.54447 -2.28019,3.83724 -3.82157,7.03646 -5.33295,11.06885 -1.03282,2.75557 -2.35882,7.24527 -2.18459,7.39678 0.0435,0.0378 2.86033,0.7822 6.2597,1.65421 3.39936,0.87202 6.24893,1.60553 6.33237,1.63003 0.0978,0.0287 0.1352,0.0966 0.10526,0.19088 -0.11872,0.37408 -0.56101,3.25848 -0.71546,4.66602 -0.53571,4.8818 -0.32587,10.32382 0.57457,14.90133 0.087,0.44238 0.13461,0.82997 0.10574,0.86129 -0.0289,0.0313 -2.90046,0.7902 -6.38132,1.68638 -4.65139,1.19754 -6.32883,1.66133 -6.32883,1.74982 0,0.22054 0.7655,3.17777 1.15593,4.46551 1.36327,4.49647 3.18147,8.71324 5.51253,12.78467 0.63427,1.107815 1.70724,2.836335 1.76065,2.836335 0.0158,0 2.53579,-1.49032 5.59998,-3.311815 3.06418,-1.8215 5.61591,-3.32939 5.6705,-3.35087 0.0546,-0.0215 0.33401,0.31008 0.62093,0.73679 2.84969,4.238095 7.15173,8.730915 11.38715,11.892125 0.6985,0.52134 1.56738,1.1474 1.93085,1.39124 l 0.66084,0.44334 -0.23213,0.39643 c -0.12768,0.21803 -1.62019,2.73867 -3.3167,5.60142 -1.6965,2.86275 -3.10159,5.24939 -3.12241,5.30365 -0.0429,0.11167 1.76262,1.24079 3.61388,2.26007 4.81009,2.64839 9.3636,4.45736 15.15533,6.02073 0.76835,0.2074 1.42301,0.37945 1.4548,0.38232 0.0318,0.003 0.0772,-0.0614 0.10088,-0.14293 z m 11.05966,-19.72295 c -1.19529,-0.0926 -3.05279,-0.30671 -3.937,-0.4537 -9.61497,-1.59839 -18.45033,-6.53886 -24.75113,-13.840105 -5.45134,-6.31691 -8.80612,-13.93908 -9.85537,-22.39176 -0.25222,-2.03188 -0.27463,-7.31644 -0.0391,-9.22932 0.80885,-6.57021 2.74958,-12.17194 6.05723,-17.48367 4.0229,-6.46034 9.86026,-11.77646 16.68009,-15.19068 0.95127,-0.47623 2.93459,-1.34959 3.58982,-1.58078 l 0.3175,-0.11203 v 0.75825 0.75824 h 0.762 0.762 v -0.7587 -0.75871 l -0.74084,-0.0245 -0.74083,-0.0245 1.73567,-0.57103 c 7.38601,-2.43001 15.27895,-2.74612 22.73789,-0.91065 9.31012,2.291 17.36612,7.51817 23.161357,15.02835 5.57809,7.22876 8.62608,16.17383 8.62608,25.31533 0,6.12928 -1.31808,12.04175 -3.93134,17.63474 -1.5614,3.34175 -3.28055,6.04583 -5.71735,8.99293 -0.990417,1.19782 -3.888607,4.12483 -5.051817,5.102045 -6.60693,5.55052 -14.72621,8.91761 -23.31482,9.66875 -1.33888,0.11709 -5.20047,0.16053 -6.35,0.0714 z m 7.78933,-1.63422 v -0.762 h -0.762 -0.762 v 0.762 0.762 h 0.762 0.762 z m -7.62,-1.524 v -1.524 h 0.762 0.762 v -0.80433 -0.80433 h -0.762 -0.762 v 0.80433 0.80433 h -0.75882 -0.75882 l -0.0243,-0.78316 -0.0243,-0.78317 -0.74084,-0.0245 -0.74083,-0.0245 v 0.80763 0.80763 h -1.524 -1.524 v -0.7587 -0.75871 l 0.74083,-0.0245 0.74084,-0.0245 0.0244,-0.73889 0.0244,-0.73889 1.49956,-0.0231 1.49957,-0.0231 v -0.762 -0.762 l -0.74084,-0.0245 -0.74083,-0.0245 v -0.75871 -0.758705 h 2.286 2.286 v 0.804335 0.80434 h 0.762 0.762 v 1.524 1.524 h 0.762 0.762 v -1.524 -1.524 h 0.762 0.762 v -0.80434 -0.804335 h 0.75882 0.75883 l 0.0243,0.783175 0.0243,0.78316 0.74084,0.0245 0.74083,0.0245 v -1.569635 -1.56963 h -0.762 -0.762 v -0.762 -0.762 h -0.762 -0.762 v -0.762 -0.762 h -1.524 -1.524 v 0.762 0.762 h -1.524 -1.524 v 0.762 0.762 h -0.762 -0.762 v -1.524 -1.524 h -0.762 -0.762 v 0.762 0.762 h -0.762 -0.762 v 0.762 0.762 h -0.762 -0.762 v -0.762 -0.762 h -0.762 -0.762 v -0.762 -0.762 h -0.80433 -0.80434 v 0.762 0.762 h -2.286 -2.286 v -0.762 -0.762 h -1.524 -1.524 v 0.762 0.762 h 1.524 1.524 v 0.762 0.762 h -1.524 -1.524 v 0.762 0.762 h -0.762 -0.762 v -0.762 -0.762 h -0.762 -0.762 v 0.762 0.762 h -0.762 -0.762 v -0.762 -0.762 h -0.762 -0.762 v 0.762 0.762 h 0.762 0.762 v 0.804345 0.80433 h 0.762 0.762 v 0.762 0.762 h 1.524 1.524 v -0.762 -0.762 h 0.762 0.762 v -0.80433 -0.804345 h 0.75883 0.75882 l 0.0243,0.783175 0.0243,0.78317 0.74083,0.0245 0.74083,0.0245 v -0.80763 -0.807635 h -0.762 -0.762 v -0.762 -0.762 h 2.32834 2.32833 v -0.762 -0.762 h 0.762 0.762 v 0.762 0.762 h 0.762 0.762 v 0.762 0.762 h 0.762 0.762 v 0.762005 0.762 h -0.762 -0.762 v 1.524 1.524 h -0.762 -0.762 v 1.56633 1.56633 h 2.286 2.286 v -0.762 -0.762 h 0.762 0.762 v 1.524 1.524 h 0.762 0.762 z m 1.524,-8.466665 v -0.762 h 0.762 0.762 v -0.762 -0.762 h 1.524 1.524 v 1.524 1.524 h -0.762 -0.762 v -0.762 -0.762 h -0.762 -0.762 v 0.762 0.762 h -0.762 -0.762 z m 3.048,8.466665 v -1.524 h -0.762 -0.762 v 1.524 1.524 h 0.762 0.762 z m -13.73387,-0.78317 0.0245,-0.74083 h -1.56963 -1.56963 v 0.76391 0.76391 l 1.54517,-0.0231 1.54517,-0.0231 z m 18.30587,0.0212 v -0.762 h -0.762 -0.762 v -1.56963 -1.56963 l -0.74083,0.0245 -0.74084,0.0245 -0.0225,2.30717 -0.0225,2.30717 h 1.52536 1.52536 z m 3.1148,-0.0212 0.0245,-0.74083 h -0.80763 -0.80763 v 0.70556 c 0,0.38805 0.0268,0.73232 0.0595,0.76504 0.0327,0.0327 0.38515,0.0486 0.78317,0.0353 l 0.72367,-0.0242 z m 4.58987,0.0212 v -0.762 h 1.52718 1.52717 l -0.0243,-0.78316 -0.0244,-0.78317 -0.73889,-0.0244 -0.73889,-0.0244 -0.0231,-1.49956 -0.0231,-1.49957 -0.74083,-0.0245 -0.74083,-0.0245 v 2.33163 2.33163 h -1.56634 -1.56633 v 0.70556 c 0,0.38805 0.0254,0.73095 0.0565,0.762 0.031,0.031 0.73589,0.0564 1.56633,0.0564 h 1.50989 z m -30.64934,-1.52209 v -0.76009 l 1.54517,-0.0231 1.54517,-0.0231 v -0.762 -0.762 h -2.286 -2.286 l -0.0231,1.54517 -0.0231,1.54517 h 0.76391 0.76391 z m 26.05753,-3.11341 0.0225,-2.307165 h 3.80864 3.80864 v 0.804335 0.80433 h 0.762 0.762 v 0.762 0.762 h 0.762 0.762 v -0.80433 -0.80433 h -0.762 -0.762 v -0.762 -0.762005 h 0.762 0.762 v -0.762 -0.762 h 0.762 0.762 v -0.762 -0.762 h 0.762 0.762 v -0.762 -0.762 h -1.524 -1.524 v 1.524 1.524 h -0.762 -0.762 v -0.762 -0.762 h -0.762 -0.762 v 0.762 0.762 h -1.524 -1.524 v -0.762 -0.762 h 0.762 0.762 v -0.762 -0.762 h -2.32834 -2.32833 v 0.762 0.762 h -1.524 -1.524 v -0.762 -0.762 h -0.762 -0.762 v 0.762 0.762 h 0.762 0.762 v 3.0447 3.044705 l -0.74083,0.0245 -0.74084,0.0245 -0.025,0.66985 c -0.0137,0.36842 -0.005,0.72173 0.0193,0.78513 0.0355,0.0925 0.3415,0.11071 1.54898,0.0922 l 1.50473,-0.0231 z m 7.63981,-3.069165 v -0.762 h 0.762 0.762 v 0.762 0.762 h -0.762 -0.762 z m -6.096,-1.524 v -0.762 h 0.762 0.762 v 0.762 0.762 h -0.762 -0.762 z m 1.48166,5.376335 v -1.524 l -0.74083,-0.0245 -0.74083,-0.0245 v 1.57293 1.57292 l 0.74083,-0.0245 0.74083,-0.0245 z m -22.94466,-0.762 v -0.762 h -0.762 -0.762 l -0.025,0.66985 c -0.0137,0.36842 -0.005,0.72234 0.0198,0.78648 0.0343,0.0895 0.21748,0.11094 0.78697,0.0922 l 0.74222,-0.0245 z m 33.655,-0.762 v -1.566335 h 0.762 0.762 v -0.762 -0.762 h -0.762 -0.762 v 0.762 0.762 h -0.762 -0.762 v 1.566335 1.56633 h 0.762 0.762 z m -49.44534,-4.614335 v -1.524 h -1.27 -1.27 v 0.762 0.762 h 0.46567 0.46567 v 0.762 0.762 h 0.80433 0.80433 z m 53.848,0 v -1.524 h -0.762 -0.762 v 1.524 1.524 h 0.762 0.762 z m -50.292,-0.762 v -0.762 h -0.762 -0.762 v 0.762 0.762 h 0.762 0.762 z m 47.498,-1.60867 v -0.762 h -0.762 -0.762 v 0.762 0.762 h 0.762 0.762 z m -54.18666,-0.762 v -0.762 h -0.762 -0.762 v -0.762 -0.762 h 0.762 0.762 v -0.80433 -0.80434 h -0.762 -0.762 v -0.71966 -0.71967 h 0.762 0.762 v -1.524 -1.524 h 0.762 0.762 v -2.32833 -2.32834 h 0.80763 0.80763 l -0.0245,-0.74083 -0.0245,-0.74083 -0.78317,-0.0243 -0.78316,-0.0243 v -0.75882 -0.75883 h -0.762 -0.762 v -0.762 -0.762 h 1.56601 1.56601 l -0.0208,-1.50283 -0.0208,-1.50283 -1.54517,-0.0231 -1.54516,-0.0231 v -0.76009 -0.76009 h 0.762 0.762 v -1.524 -1.524 h 0.80433 0.80433 v -1.524 -1.524 h -0.80433 -0.80433 v -0.762 -0.762 h -0.762 -0.762 v -0.762 -0.762 h -1.524 -1.524 v 0.762 0.762 h 0.762 0.762 v 0.762 0.762 h -0.762 -0.762 v 0.762 0.762 h -1.524 -1.524 v 0.762 0.762 h 1.524 1.524 v 0.762 0.762 h 0.762 0.762 v 2.286 2.286 h -0.762 -0.762 v -0.762 -0.762 h -0.762 -0.762 v 1.524 1.524 h -0.762 -0.762 v 0.762 0.762 h -0.762 -0.762 v -1.524 -1.524 h 0.762 0.762 v -0.762 -0.762 h -0.762 -0.762 v -0.762 -0.762 h 0.762 0.762 v -0.762 -0.762 h -0.762 -0.762 v 0.762 0.762 h -0.762 -0.762 v 0.762 0.762 h 0.762 0.762 v 0.762 0.762 h -0.762 -0.762 v 2.286 2.286 h 1.524 1.524 v -0.762 -0.762 h 1.524 1.524 v -0.762 -0.762 h 0.762 0.762 v 0.762 0.762 h 0.762 0.762 v 0.762 0.762 h 0.762 0.762 v 0.762 0.762 h -0.762 -0.762 v 2.286 2.286 h -0.762 -0.762 v -0.762 -0.762 h -0.762 -0.762 v 0.80433 0.80433 h 0.762 0.762 v 0.71967 0.71967 h -0.762 -0.762 v 0.762 0.762 h -0.762 -0.762 v 1.56633 1.56633 h 0.762 0.762 v 0.762 0.762 h 0.762 0.762 v 0.762 0.762 h 0.762 0.762 z m -1.524,-24.46867 v -0.762 h 0.762 0.762 v -0.762 -0.762 h -0.762 -0.762 v -0.762 -0.762 h 1.524 1.524 v 1.524 1.524 h -0.762 -0.762 v 0.762 0.762 h -0.762 -0.762 z m 4.63745,23.6855 0.0231,-1.50283 h -0.80629 -0.80628 v 0.762 0.762 h -0.46567 -0.46567 v 0.76426 0.76427 l 1.24884,-0.0234 1.24883,-0.0234 z m 53.86721,0.0212 v -1.524 h -0.762 -0.762 v 1.524 1.524 h 0.762 0.762 z m 3.11475,0.74409 0.0244,-0.73759 0.73758,-0.0244 0.737587,-0.0244 0.0245,-0.74083 0.0245,-0.74083 h 0.76062 0.76061 l -0.0231,-1.54517 -0.0231,-1.54517 -0.73759,-0.0244 -0.73758,-0.0244 -0.0244,-0.73758 -0.0244,-0.73759 -0.740837,-0.0245 -0.74083,-0.0245 v -0.71309 -0.71308 l 0.74083,-0.0245 0.740837,-0.0245 v -0.762 -0.762 h -0.761997 -0.762 l -0.0245,0.74084 -0.0245,0.74083 h -0.7587 -0.75871 v -2.286 -2.286 h -0.762 -0.762 v -0.762 -0.762 h 0.762 0.762 v -0.762 -0.762 h 0.80434 0.80433 v -0.7653 -0.76529 l 0.74083,0.0245 0.740837,0.0245 0.0245,0.74083 0.0245,0.74083 h 1.52071 1.5207 v 0.762 0.762 h 1.524 1.524 v -2.286 -2.286 h -0.762 -0.762 v -0.762 -0.762 h 0.762 0.762 v -0.762 -0.762 h -0.762 -0.762 v -0.762 -0.762 h -0.762 -0.762 v 0.762 0.762 h 0.762 0.762 v 0.762 0.762 h -0.762 -0.762 v 0.762 0.762 h 0.762 0.762 v 1.524 1.524 h -0.762 -0.762 v -0.762 -0.762 h -0.762 -0.762 v -1.524 -1.524 h -0.762 -0.762 v 0.762 0.762 h -0.761997 -0.762 v -2.286 -2.286 h 0.762 0.761997 v -0.762 -0.762 h 1.524 1.524 v -0.762 -0.762 h -1.524 -1.524 v -0.762 -0.762 h -0.761997 -0.762 v -0.762 -0.762 h 0.762 0.761997 v -0.762 -0.762 h -1.566327 -1.56634 v 0.762 0.762 h -0.762 -0.762 v 0.762 0.762 h -0.762 -0.762 v 1.524 1.524 h 0.762 0.762 v 1.524 1.524 h 0.762 0.762 v 0.762 0.762 h -1.524 -1.524 v 1.524 1.524 h 1.524 1.524 v 0.762 0.762 h -0.762 -0.762 v 0.762 0.762 h -0.762 -0.762 v 0.762 0.762 h 0.762 0.762 v 2.28271 2.2827 l -0.74083,0.0245 -0.74083,0.0245 v 1.524 1.524 l 0.74083,0.0245 0.74083,0.0245 v -1.52729 -1.5273 h 0.76005 0.76005 l 0.0231,1.50283 0.0231,1.50284 0.74083,0.0245 0.74083,0.0245 v 0.71307 0.71307 l -0.74083,0.0245 -0.74083,0.0245 -0.0243,0.78317 -0.0243,0.78317 h 0.76518 0.76517 v 0.762 0.762 h -0.762 -0.762 v 0.76517 0.76518 l 0.78317,-0.0243 0.78317,-0.0243 z m -1.59075,-24.45075 v -0.762 h -0.762 -0.762 v -1.524 -1.524 h 1.524 1.524 v 0.762 0.762 h -0.762 -0.762 v 0.762 0.762 h 0.762 0.762 v 0.762 0.762 h -0.762 -0.762 z m -35.23943,23.9395 0.0242,-0.8255 h 1.64794 1.64793 v 0.84666 0.84667 h 2.58233 2.58234 v -0.84667 -0.84666 h 1.69333 1.69333 v 0.84666 0.84667 h 1.73567 1.73567 v -1.69333 -1.69334 h 0.80127 0.80126 l 0.0242,0.8255 0.0242,0.8255 0.86783,0.0241 0.86783,0.0241 v -0.84962 -0.84963 h 1.69334 1.69333 v 1.69333 1.69333 h 0.889 0.889 v -1.69333 -1.69333 h 1.651 1.651 v 0.80433 0.80433 h -0.84667 -0.84666 v 0.889 0.889 h 0.889 0.889 v -0.84666 -0.84667 h 0.84666 0.84667 v -1.73567 -1.73566 h -3.38667 -3.38666 v -0.84667 -0.84667 h 3.38666 3.38667 v -0.84666 -0.84667 h 0.84667 0.84666 v -0.889 -0.889 h -0.84666 -0.84667 v 0.84667 0.84666 h -1.42875 c -0.78581,0 -1.54781,0.0238 -1.69333,0.0529 l -0.26459,0.0529 v -0.89958 -0.89958 h -0.84666 -0.84667 v -0.80434 -0.80433 h 0.84667 0.84666 v -0.84667 -0.84666 h 0.80434 0.80433 v 0.84666 0.84667 h 1.73567 1.73566 v -0.889 -0.889 h -1.69333 -1.69333 v -0.84667 -0.84666 h -0.84667 -0.84667 v -2.54 -2.54 h 0.80434 0.80433 v 0.84666 0.84667 h 1.73233 1.73234 l 0.0245,-1.7145 c 0.0135,-0.94297 0.0136,-2.10502 3.7e-4,-2.58233 l -0.0241,-0.86784 h -0.8437 -0.84371 l -0.004,0.86784 c -0.002,0.47731 -0.0118,1.24883 -0.0212,1.7145 l -0.0171,0.84666 -0.8255,0.0242 -0.8255,0.0242 v -0.89206 -0.89207 h -0.84667 -0.84667 v -0.84667 -0.84666 h -1.69333 -1.69333 v -0.80434 -0.80433 h 1.69333 1.69333 v -0.84667 -0.84666 h 0.80127 0.80127 l 0.0242,0.8255 0.0242,0.8255 1.71152,0.0229 1.71152,0.0229 0.0242,-0.82725 c 0.0133,-0.45498 0.0122,-1.23681 -0.002,-1.73741 l -0.0266,-0.91016 h -0.84122 -0.84122 v -0.84667 -0.84667 h -0.889 -0.889 v 0.84667 0.84667 h -0.80433 -0.80434 v -0.84667 -0.84667 h -0.84666 -0.84667 v -0.84666 -0.84667 h 0.84667 0.84666 v -0.84846 -0.84845 l 1.67217,0.023 1.67217,0.023 0.0242,0.8255 0.0242,0.8255 h 0.84064 0.84064 l 0.0241,-0.8255 c 0.0133,-0.45403 0.0121,-1.23563 -0.003,-1.7369 l -0.0266,-0.9114 -2.55569,0.0224 -2.5557,0.0224 -0.0241,0.86581 -0.0241,0.86582 h -1.64512 -1.64512 l -0.0241,-0.86582 -0.0241,-0.86581 h -2.58233 -2.58233 l -0.0241,0.86783 -0.0241,0.86783 h -0.8437 -0.84371 v 0.84667 0.84667 h 0.84667 0.84666 v 1.69333 1.69333 h -0.84666 -0.84667 v 0.84667 0.84667 h -0.80433 -0.80434 v -3.38667 -3.38667 h -0.889 -0.889 v 0.84974 0.84973 l -0.8255,-0.0242 -0.8255,-0.0242 -0.0201,-1.67217 -0.0201,-1.67216 h 2.58123 2.58123 v -0.84667 -0.84667 h 0.84666 0.84667 v -0.889 -0.889 h -0.889 -0.889 v 0.84667 0.84667 h -0.80433 -0.80434 v -0.84667 -0.84667 h -0.84666 -0.84667 v -0.80433 -0.80433 h 1.69333 1.69334 v -0.889 -0.889 h -1.69334 -1.69333 v -0.84763 -0.84763 l 1.67217,0.005 c 0.91969,0.003 2.06269,0.003 2.54,9.6e-4 l 0.86783,-0.004 v -1.73863 -1.73863 l -0.86783,0.0241 -0.86784,0.0241 -0.0241,0.86582 -0.0241,0.86582 h -1.64806 -1.64806 v -0.84465 -0.84465 h 0.84667 0.84666 v -0.889 -0.889 h -1.73566 -1.73567 v 0.84542 0.84543 l -2.56117,0.0224 -2.56116,0.0224 -0.0241,0.86582 -0.0241,0.86581 h -1.64513 -1.64512 l -0.0241,-0.86581 -0.0241,-0.86582 -1.7145,-0.0229 -1.7145,-0.0229 v -0.84491 -0.84492 h -1.73567 -1.73566 v 2.58234 2.58233 h 0.889 0.889 v -0.84667 -0.84666 h 2.54 2.54 v 0.84666 0.84667 h -1.69334 -1.69333 v 1.73742 1.73742 l 1.7145,-0.0229 1.7145,-0.0229 0.0229,-1.7145 0.0229,-1.7145 h 0.80258 0.80258 v 2.54 2.54 h -0.84667 -0.84666 v 0.889 0.889 h 0.84666 0.84667 v 0.84666 0.84667 h 0.84667 0.84666 v 1.69333 1.69334 h 2.58234 2.58233 v 0.84666 0.84667 h -1.73567 -1.73566 v 0.84667 0.84666 h -0.80434 -0.80433 v -0.84666 -0.84667 h -1.69333 -1.69334 v -0.84667 -0.84666 h -3.47133 -3.47133 v 0.84666 0.84667 h 0.8437 0.84371 l 0.0241,0.86783 0.0241,0.86784 1.7145,0.0229 1.7145,0.0229 v 0.80083 0.80082 l -1.7145,0.0229 -1.7145,0.0229 -0.023,1.67217 -0.023,1.67217 h -0.80254 -0.80255 v -1.69334 -1.69333 h -0.84666 -0.84667 v -0.84667 -0.84666 h -1.69333 -1.69334 v -0.8515 -0.8515 l 0.8255,0.0101 c 0.45403,0.006 1.21603,0.008 1.69334,0.005 l 0.86783,-0.005 v -0.84667 -0.84667 h -0.84667 -0.84666 v -0.84666 -0.84667 h 0.84666 0.84667 v -0.889 -0.889 h -0.889 -0.889 v 0.889 0.889 h -0.80137 -0.80137 l -0.0241,-0.86783 -0.0241,-0.86784 h -2.58233 -2.58234 l -0.0242,0.87739 -0.0242,0.87739 -1.69027,-0.0616 -1.69027,-0.0616 v 1.79734 1.79734 l 1.69334,-0.0617 1.69333,-0.0617 v 0.85634 0.85633 h -0.84667 -0.84666 v 1.69334 1.69333 h -0.84667 -0.84667 v 6.01133 6.01134 h 0.889 0.889 v -2.58234 -2.58233 h 0.80138 0.80137 l 0.0241,0.86783 0.0241,0.86784 1.7145,0.0229 1.7145,0.0229 v 0.80258 0.80258 h -0.84666 -0.84667 v 0.889 0.889 h 3.429 3.429 v -0.84667 -0.84667 h 0.84667 0.84666 v -0.889 -0.889 h -0.84666 -0.84667 v -0.8515 -0.8515 l 0.8255,0.0101 c 0.45403,0.005 1.21603,0.008 1.69333,0.005 l 0.86784,-0.005 v -0.84666 -0.84667 l -0.86784,-0.005 c -0.4773,-0.003 -1.23795,-7.4e-4 -1.69031,0.005 l -0.82249,0.01 -0.0242,-0.87261 -0.0242,-0.87261 -0.86784,-0.0241 -0.86783,-0.0241 v 0.89196 0.89196 h -0.80433 -0.80434 v -1.69333 -1.69333 h 2.49767 2.49767 v 0.84666 0.84667 h 1.73566 1.73567 v 0.84667 0.84666 h 0.889 0.889 v -1.69333 -1.69333 h 1.69333 1.69334 v -0.889 -0.889 h -1.69334 -1.69333 v -0.80127 -0.80127 l 0.8255,-0.0242 0.8255,-0.0242 0.0242,-0.8255 0.0242,-0.8255 h 1.64793 1.64793 v 2.54 2.54 h 0.84667 0.84667 v 0.84667 0.84666 h 2.62763 2.62763 l -0.0241,-0.86783 -0.0241,-0.86783 -0.86784,-0.0241 -0.86783,-0.0241 v -0.84371 -0.8437 h -0.84667 -0.84666 v -1.651 -1.651 h 1.69333 1.69333 v 1.69333 1.69334 h 1.69334 1.69333 v 0.84666 0.84667 h 0.84667 0.84666 v 0.80127 0.80126 l -0.8255,0.0242 -0.8255,0.0242 -0.0241,0.86784 -0.0241,0.86783 h -0.84371 -0.8437 v 0.84667 0.84666 l 0.86783,0.003 c 0.47731,0.002 1.62983,0.0113 2.56117,0.0212 l 1.69333,0.0179 0.0209,1.67217 0.0209,1.67217 h -1.7354 -1.7354 v 0.84666 0.84667 h -1.651 -1.651 v -0.80433 -0.80434 h 0.84667 0.84666 v -0.889 -0.889 h -0.84666 -0.84667 v -1.69037 -1.69037 l -0.8255,-0.0241 c -0.45402,-0.0133 -1.23507,-0.0122 -1.73567,0.002 l -0.91016,0.0266 v 1.68789 1.68788 h -0.89076 -0.89075 l 0.0229,1.7145 0.0229,1.7145 0.86783,0.0241 0.86784,0.0241 v -1.69629 -1.6963 h 0.84666 0.84667 v 2.54 2.54 h 0.84667 0.84666 v 2.54 2.54 h 0.84667 0.84667 v 0.84667 0.84667 h -0.84667 -0.84667 v 0.84666 0.84667 h -1.69333 -1.69333 v 0.84667 0.84666 h -0.84667 -0.84667 v -0.84666 -0.84667 h -0.84666 -0.84667 v -0.84796 -0.84795 l 1.7145,0.007 c 0.94298,0.004 2.08598,0.005 2.54,0.001 l 0.8255,-0.006 v -0.84667 -0.84666 h -1.69333 -1.69334 v -1.69334 -1.69333 h 0.84667 0.84667 v 0.84667 0.84666 h 0.84666 0.84667 v -0.889 -0.889 h -0.84667 -0.84666 v -0.84666 -0.84667 h -1.69334 -1.69333 v -1.69333 -1.69334 h -1.73567 -1.73566 v 0.84667 0.84667 h -0.80127 -0.80127 l -0.0242,-0.8255 -0.0242,-0.8255 -0.86784,-0.0241 -0.86783,-0.0241 v -0.79841 -0.79841 l 0.86783,-0.0241 0.86784,-0.0241 0.0241,-0.86784 0.0241,-0.86783 h -0.89197 -0.89196 v 0.84667 0.84666 h -0.89196 -0.89196 l 0.0241,0.86784 0.0241,0.86783 0.86784,0.0241 0.86783,0.0241 v 0.84371 0.8437 h 0.84667 0.84666 v 0.80433 0.80434 h -1.69333 -1.69333 v -0.84667 -0.84667 h -0.889 -0.889 v 0.889 0.889 h 0.84666 0.84667 v 0.84667 0.84667 h 0.89207 0.89206 l -0.0242,0.8255 -0.0242,0.8255 -0.84667,0.0147 c -0.46567,0.008 -1.23775,0.0176 -1.71574,0.0212 l -0.86908,0.007 0.0224,2.56116 0.0224,2.56117 1.7145,0.0229 1.7145,0.0229 v 0.79962 0.79962 l -0.86783,0.0241 -0.86784,0.0241 -0.0247,0.7553 c -0.0136,0.41541 -0.005,0.80673 0.0192,0.86959 0.0352,0.0918 0.38151,0.10978 1.76034,0.0914 l 1.71648,-0.0229 z m 3.40477,-1.7145 v -0.80434 h 0.80433 0.80433 v 0.80434 0.80433 h -0.80433 -0.80433 z m -3.38667,-1.73567 v -0.84667 h -1.73567 -1.73566 v -0.84666 -0.84667 h 1.73566 1.73567 v -0.84667 -0.84666 h 0.84667 0.84666 v -0.84667 -0.84667 h 0.80434 0.80433 v 1.69334 1.69333 h -0.84667 -0.84666 v 1.69333 1.69334 h -0.80434 -0.80433 z m 3.38667,-1.69333 v -0.84667 h 0.80433 0.80433 v 0.84667 0.84666 h -0.80433 -0.80433 z m 15.34277,0.0212 0.0242,-0.8255 h 0.80433 0.80433 l 0.0242,0.8255 0.0242,0.8255 h -0.8528 -0.8528 z m -5.09811,-1.7145 v -0.84667 h 0.80434 0.80433 v 0.84667 0.84667 h -0.80433 -0.80434 z m 3.44023,-0.906 c -0.0295,-0.0294 -0.0536,-1.17116 -0.0536,-2.53711 v -2.48356 h 2.54126 2.54126 l -0.0224,2.51884 -0.0224,2.51883 -2.46528,0.0183 c -1.3559,0.0101 -2.48938,-0.006 -2.51883,-0.0353 z m 3.33311,-2.523 v -0.889 h -0.84667 -0.84667 v 0.889 0.889 h 0.84667 0.84667 z m -20.40467,0 v -0.80433 h 0.80433 0.80434 v 0.80433 0.80433 h -0.80434 -0.80433 z m 3.38667,0 v -0.80433 h 0.80433 0.80433 v 0.80433 0.80433 h -0.80433 -0.80433 z m -1.69334,-1.69333 v -0.80434 h 0.80434 0.80433 v 0.80434 0.80433 h -0.80433 -0.80434 z m -10.24466,-3.38667 v -0.80433 h 0.80433 0.80433 v 0.80433 0.80433 h -0.80433 -0.80433 z m 30.734,-0.889 v -1.69333 h 0.80433 0.80433 v 1.69333 1.69333 h -0.80433 -0.80433 z m -37.592,-3.38488 v -1.69512 h 0.84666 0.84667 v -0.89196 -0.89196 l -0.86783,0.0241 -0.86784,0.0241 -0.0242,0.8255 -0.0242,0.8255 h -0.80127 -0.80127 v -1.651 -1.651 h 3.38667 3.38667 v 0.80433 0.80433 h -0.84543 -0.84542 l -0.0224,2.56117 -0.0224,2.56117 -1.67217,0.023 -1.67216,0.023 z m 6.858,0.84488 v -0.84667 h 0.80433 0.80433 v 0.84667 0.84667 h -0.80433 -0.80433 z m 25.56933,-1.69154 v -0.84846 h 0.84667 0.84666 v -0.889 -0.889 h -0.84666 -0.84667 v -0.80433 -0.80434 h 1.69333 1.69334 v 0.84667 0.84667 h 0.84666 0.84667 v 0.80433 0.80433 h -0.8437 -0.84371 l -0.0241,0.86784 -0.0241,0.86783 -1.67216,0.023 -1.67217,0.023 z m 5.16467,-0.002 v -0.84667 h 0.80433 0.80433 v 0.84667 0.84666 h -0.80433 -0.80433 z m -23.96067,-3.429 v -0.80434 h 0.84667 0.84666 v 0.80434 0.80433 h -0.84666 -0.84667 z m 8.55133,0 v -0.80434 h 0.84667 0.84667 v 0.80434 0.80433 h -0.84667 -0.84667 z m -15.32466,-1.69334 v -0.80433 h 0.80433 0.80433 v 0.80433 0.80434 h -0.80433 -0.80433 z m 28.956,0 v -0.80433 h 0.84666 0.84667 v 0.80433 0.80434 h -0.84667 -0.84666 z m -35.814,-1.69333 v -0.80433 h 0.84666 0.84667 v 0.80433 0.80433 h -0.84667 -0.84666 z m 34.12066,0 v -0.80433 h 0.84667 0.84667 v 0.80433 0.80433 h -0.84667 -0.84667 z m 3.47134,-0.0423 v -0.84667 h -0.89207 -0.89206 l 0.0242,-0.8255 0.0242,-0.8255 1.67217,-0.0209 1.67216,-0.0209 v 0.88874 0.88873 h 0.84667 0.84667 v 0.80434 0.80433 h -1.651 -1.651 z m -37.592,-3.38667 v -0.8528 l 0.8255,0.0242 0.8255,0.0242 v 0.80434 0.80433 l -0.8255,0.0242 -0.8255,0.0242 z m 3.42436,0.73811 c -0.0229,-0.0597 -0.0312,-0.81218 -0.0185,-1.67216 l 0.0232,-1.56361 0.8255,-0.0242 0.8255,-0.0242 v 1.6964 1.69639 h -0.80699 c -0.57829,0 -0.8188,-0.0308 -0.84865,-0.10855 z m 29.00297,-2.43144 v -0.8528 l 0.8255,0.0242 0.8255,0.0242 v 0.80433 0.80434 l -0.8255,0.0242 -0.8255,0.0242 z m 3.42269,0.73376 c -0.0238,-0.0621 -0.0322,-0.43358 -0.0185,-0.8255 l 0.0248,-0.71259 0.8255,-0.0242 0.8255,-0.0242 v 0.84973 0.84973 h -0.80699 c -0.59446,0 -0.8184,-0.0297 -0.85032,-0.11291 z m -13.60796,-1.63392 c -0.0327,-0.0327 -0.0594,-0.43405 -0.0594,-0.89195 v -0.83256 h -0.84666 -0.84667 v -0.80433 -0.80433 h 0.84667 0.84666 v -2.58234 -2.58233 h -0.84666 -0.84667 v -0.84667 -0.84666 h 0.84667 0.84666 v -0.84974 -0.84973 l 0.8255,0.0242 0.8255,0.0242 0.0229,1.7145 0.0229,1.7145 h 0.84492 0.84491 v 0.80433 0.80434 h -0.84667 -0.84666 l -0.003,0.86783 c -0.002,0.47731 -0.0111,2.01083 -0.0212,3.40783 l -0.0183,2.54 -0.7661,0.0241 c -0.42136,0.0133 -0.79283,-0.003 -0.8255,-0.0353 z m -3.44606,-4.22217 v -0.80434 h 0.80433 0.80433 v 0.80434 0.80433 h -0.80433 -0.80433 z m 6.77333,0 v -0.80434 h 0.84667 0.84666 v 0.80434 0.80433 h -0.84666 -0.84667 z m 0.036,-6.08191 c -0.0238,-0.0621 -0.0322,-0.43358 -0.0185,-0.8255 l 0.0248,-0.71259 0.8255,-0.0242 0.8255,-0.0242 v 0.84973 0.84973 h -0.80699 c -0.59446,0 -0.8184,-0.0297 -0.85031,-0.11291 z m -17.1387,38.42457 v -5.969 h -5.969 -5.969 v 5.969 5.969 h 5.969 5.969 z m -10.24466,0.0423 v -4.23333 h 4.27566 4.27567 v 4.23333 4.23334 h -4.27567 -4.27566 z m 6.83807,-0.0212 -0.0224,-2.56116 h -2.54 -2.54 l -0.0224,2.56116 -0.0224,2.56117 h 2.58481 2.58482 z m -9.84374,-1.2065 v -1.524 h -0.762 -0.762 l -0.0233,1.43623 c -0.0128,0.78992 -0.004,1.48674 0.0198,1.54848 0.0323,0.0841 0.22917,0.10612 0.78529,0.0878 l 0.74222,-0.0245 z m -7.66233,-2.286 v -2.32833 h -0.762 -0.762 v 1.524 1.524 h -0.762 -0.762 v 0.80433 0.80434 h 1.524 1.524 z m 70.781327,1.524 v -0.80433 h -0.76005 -0.76004 l -0.0231,-1.50283 -0.0231,-1.50284 -0.74084,-0.0245 -0.74083,-0.0245 v 2.33163 2.33163 h 1.524 1.524 z m -73.848587,-3.83116 0.0231,-1.54517 h -0.76391 -0.76391 v 1.56963 1.56963 l 0.74083,-0.0245 0.74083,-0.0245 z m 75.372587,0.0212 v -1.56634 h -0.762 -0.762 v 1.56634 1.56633 h 0.762 0.762 z m -70.781327,-2.32834 v -0.762 h -0.762 -0.762 v 0.762 0.762 h 0.762 0.762 z m 66.209327,0 v -0.762 h -0.762 -0.762 v 0.762 0.762 h 0.762 0.762 z m -9.228667,-2.07433 v -0.889 h -0.84666 -0.84667 v 0.889 0.889 h 0.84667 0.84666 z m -27.28208,-2.56117 0.0229,-1.7145 h 0.80258 0.80258 v 0.84667 0.84667 h 0.889 0.889 v -0.84667 -0.84667 h -0.84666 -0.84667 v -0.889 -0.889 h -1.73567 -1.73566 v 2.62763 2.62763 l 0.86783,-0.0241 0.86783,-0.0241 z m -36.64125,-2.9845 v -0.762 h -0.762 -0.762 v 0.762 0.762 h 0.762 0.762 z m 80.076797,-0.0212 0.0245,-0.74083 h -0.80763 -0.80763 v 0.70555 c 0,0.38806 0.0268,0.73233 0.0595,0.76505 0.0327,0.0327 0.38515,0.0486 0.78317,0.0353 l 0.72367,-0.0242 z m -79.992127,-4.55083 v -0.762 h -0.762 -0.762 v 0.762 0.762 h 0.762 0.762 z m 2.286,0 v -0.762 h -0.762 -0.762 v 0.762 0.762 h 0.762 0.762 z m 75.353327,0 v -0.762 h -0.762 -0.762 v 0.762 0.762 h 0.762 0.762 z m 2.286,0 v -0.762 h -0.762 -0.762 v 0.762 0.762 h 0.762 0.762 z m -74.591327,-3.048 v -0.762 h -1.524 -1.524 v -0.762 -0.762 h -0.762 -0.762 v 1.524 1.524 h 2.286 2.286 z m 72.305327,-0.762 v -1.524 h -0.762 -0.762 v 0.762 0.762 h -1.524 -1.524 v 0.762 0.762 h 2.286 2.286 z m -72.305327,-2.286 v -0.762 h 3.048 3.048 v 0.76518 0.76517 l 0.78316,-0.0243 0.78317,-0.0243 0.0245,-0.74083 0.0245,-0.74083 h -0.80763 -0.80763 v -1.52083 -1.52082 l 0.78316,-0.0243 0.78317,-0.0243 v -2.286 -2.286 h -0.762 -0.762 l -0.0245,0.74083 -0.0245,0.74084 h -0.75871 -0.7587 v -1.48167 -1.48167 h 0.762 0.762 v -0.80433 -0.80433 h -0.762 -0.762 v -0.71967 -0.71967 l 0.78316,-0.004 c 0.43075,-0.002 1.12607,-0.0119 1.54517,-0.0212 l 0.762,-0.0168 v -1.524 -1.524 l -0.78317,-0.0243 -0.78316,-0.0243 v 0.76188 0.76189 l -0.74084,0.0245 -0.74083,0.0245 -0.0244,0.73758 -0.0244,0.73758 -0.73758,0.0244 -0.73759,0.0244 -0.0245,0.74084 -0.0245,0.74083 h -0.75871 -0.7587 v -0.762 -0.762 h -0.762 -0.762 v 0.80433 0.80434 h 0.762 0.762 v 0.762 0.762 h 0.762 0.762 v 3.81 3.81 h -2.286 -2.286 v 1.524 1.524 h 0.762 0.762 z m 4.572,-4.572 v -0.762 h 0.762 0.762 v 0.762 0.762 h -0.762 -0.762 z m -1.524,-6.13833 v -0.71967 h 0.762 0.762 v 0.71967 0.71966 h -0.762 -0.762 z m 58.50466,10.71033 v -0.762 h 3.09034 3.090327 v 0.762 0.762 h 0.762 0.762 v -1.524 -1.524 h -2.286 -2.285997 l -0.002,-1.524 c -0.001,-0.8382 -0.002,-2.22885 -0.002,-3.09033 0,-0.86149 9.1e-4,-1.8887 0.002,-2.28271 l 0.002,-0.71637 0.74083,-0.0245 0.740837,-0.0245 0.0244,-0.73758 0.0244,-0.73759 0.73758,-0.0244 0.73759,-0.0244 v -0.762 -0.762 l -0.74084,-0.0245 -0.74083,-0.0245 v 0.7653 0.7653 h -0.758697 -0.75871 l -0.0245,-0.74084 -0.0245,-0.74083 -0.78317,-0.0243 -0.78317,-0.0243 v -0.75882 -0.75883 h -0.762 -0.762 v -0.762 -0.762 h -0.76391 -0.76391 l 0.0231,1.54517 0.0231,1.54517 1.50283,0.0231 1.50283,0.0231 v 0.71441 0.71442 l -0.74083,0.0245 -0.74083,0.0245 v 0.762 0.762 l 0.74083,0.0245 0.74083,0.0245 v 1.47837 1.47837 h -0.762 -0.762 v -0.76529 -0.7653 l -0.74083,0.0245 -0.74083,0.0245 -0.0225,2.30717 -0.0225,2.30716 h 0.76336 0.76336 v 1.524 1.524 h -0.762 -0.762 v 0.762 0.762 h 0.762 0.762 z m 0,-4.572 v -0.762 h 0.762 0.762 v 0.762 0.762 h -0.762 -0.762 z m 1.524,-6.13833 v -0.71967 h 0.762 0.762 v 0.71967 0.71966 h -0.762 -0.762 z m -66.12466,9.18633 v -0.762 h -0.762 -0.762 v 0.762 0.762 h 0.762 0.762 z m 75.353327,0 v -0.762 h -0.762 -0.762 v 0.762 0.762 h 0.762 0.762 z m -47.921327,-1.016 v -0.84667 h 0.84666 0.84667 v 0.84667 0.84667 h 1.73863 1.73863 l -0.0241,-0.86784 -0.0241,-0.86783 -0.82372,-0.0242 -0.82372,-0.0242 -0.023,-1.66912 -0.0229,-1.66913 -0.86784,-0.0241 -0.86783,-0.0241 v 0.84963 0.84963 h -0.84667 -0.84666 v -1.69333 -1.69333 h -0.889 -0.889 v 3.429 3.429 h 0.889 0.889 z m -22.86,-1.94733 v -0.762 h -0.762 -0.762 v 0.762 0.762 h 0.762 0.762 z m 66.209327,0 v -0.762 h -0.762 -0.762 v 0.762 0.762 h 0.762 0.762 z m -70.800587,-0.86784 -0.0231,-1.54516 -0.74083,-0.0245 -0.74083,-0.0245 v 1.56963 1.56963 h 0.76391 0.76391 z m 75.372587,-0.0212 v -1.56633 h -0.762 -0.762 v -1.524 -1.524 h -0.762 -0.762 v 0.762 0.762 l -0.78317,0.006 c -0.43074,0.003 -1.11654,7.8e-4 -1.524,-0.005 l -0.74083,-0.0107 v 0.81452 0.81453 l 0.74083,-0.0107 c 0.40746,-0.006 1.43616,-0.008 2.286,-0.005 l 1.54517,0.006 v 1.524 1.524 h 0.762 0.762 z m -51.392667,-5.75733 v -5.969 h -5.969 -5.969 v 5.969 5.969 h 5.969 5.969 z m -10.24466,0.0423 v -4.23334 h 4.27566 4.27567 v 4.23334 4.23333 h -4.27567 -4.27566 z m 6.858,0 v -2.54 h -2.58234 -2.58233 v 2.54 2.54 h 2.58233 2.58234 z m 40.97866,-0.0423 v -5.969 h -5.969 -5.969 v 5.969 5.969 h 5.969 5.969 z m -10.24466,0.0423 v -4.23334 h 4.27566 4.27567 v 4.23334 4.23333 h -4.27567 -4.27566 z m 6.77333,0 v -2.54 h -2.54 -2.54 v 2.54 2.54 h 2.54 2.54 z m -53.50933,3.429 v -0.80434 h -1.52071 -1.5207 l -0.0245,-0.74083 -0.0245,-0.74083 -0.74083,-0.0245 -0.74083,-0.0245 v 1.56963 1.56963 h 2.286 2.286 z m 1.524,-7.62 v -0.80434 h 0.762 0.762 v -0.762 -0.762 h 1.56633 1.56633 v -0.762 -0.762 h -0.762 -0.762 v -0.762 -0.762 h -0.80433 -0.80433 v 1.524 1.524 h -0.762 -0.762 v 0.762 0.762 h -1.524 -1.524 v 0.80434 0.80433 h 1.524 1.524 z m 64.667337,-0.0212 0.0243,-0.78317 h -1.52389 -1.523877 l -0.0245,-0.74083 -0.0245,-0.74083 -0.78317,-0.0243 -0.78317,-0.0243 v 0.76517 0.76518 h 0.762 0.762 v 0.74789 c 0,0.41134 0.0262,0.77414 0.0583,0.80622 0.0321,0.0321 0.72741,0.048 1.545157,0.0353 l 1.48684,-0.0231 z m -6.162677,-3.6228 v -1.56963 l -0.74083,0.0245 -0.74083,0.0245 -0.0233,1.43623 c -0.0128,0.78992 -0.004,1.48525 0.0185,1.54516 0.0296,0.077 0.25338,0.10895 0.76413,0.10895 h 0.72232 z m 2.11667,-0.039 v -0.762 h -0.762 -0.762 v 0.762 0.762 h 0.762 0.762 z m -50.71533,-1.43933 v -1.524 h 0.762 0.762 v 0.762 0.762 h 1.524 1.524 v 0.762 0.762 h 0.762 0.762 v -0.80433 -0.80434 h -0.762 -0.762 v -0.71605 -0.71605 l 1.54516,-0.0248 c 0.84985,-0.0136 1.87855,-0.0138 2.286,-3.2e-4 l 0.74084,0.0245 v 0.71307 0.71308 l -0.74084,0.0245 -0.74083,0.0245 -0.0243,0.78317 -0.0243,0.78316 h 1.52718 1.52718 v -0.75882 -0.75882 l 0.78316,-0.0243 0.78317,-0.0243 0.0245,-0.74084 0.0245,-0.74083 h 1.5207 1.5207 v 0.7671 0.76709 l 0.74084,-0.0107 c 0.40746,-0.006 1.09326,-0.008 1.524,-0.005 l 0.78316,0.006 v 0.762 0.762 h 1.524 1.524 v -0.762 -0.762 h 0.762 0.762 v 0.762 0.762 h 1.524 1.524 v -0.80433 -0.80433 h -1.524 -1.524 v -0.71967 -0.71967 h 0.762 0.762 v -0.762 -0.762 h 0.75871 0.7587 l 0.0245,0.74084 0.0245,0.74083 0.74083,0.0245 0.74083,0.0245 v 1.5207 1.52071 h 0.762 0.762 v -0.762 -0.762 h 0.762 0.762 v -1.524 -1.524 h 0.75883 0.75882 l 0.0243,-0.78317 0.0243,-0.78317 0.73891,-0.0244 0.73891,-0.0244 0.0231,1.54844 0.0231,1.54843 0.73758,0.0244 0.73759,0.0244 0.0244,0.73759 0.0244,0.73758 h 0.762 0.762 v -0.762 -0.762 l -0.74084,-0.0245 -0.74083,-0.0245 v -0.71307 -0.71308 l 0.74083,-0.0245 0.74084,-0.0245 0.0243,-0.78316 0.0243,-0.78317 h 0.75882 0.75882 v -0.762 -0.762 h 0.762 0.762 v -0.762 -0.762 h -2.286 -2.286 v -1.524 -1.524 h -0.80433 -0.80434 v 0.762 0.762 h -0.762 -0.762 v 0.762 0.762 h 0.762 0.762 v 0.762 0.762 h -1.524 -1.524 v 0.762 0.762 h -0.762 -0.762 v -0.762 -0.762 h -0.762 -0.762 v -0.762 -0.762 h 0.762 0.762 v -2.286 -2.286 h -0.762 -0.762 v 1.524 1.524 h -0.762 -0.762 v -0.762 -0.762 h -0.762 -0.762 v -0.762 -0.762 h -2.286 -2.286 v 1.524 1.524 h 0.762 0.762 v -0.762 -0.762 h 0.762 0.762 v 1.524 1.524 h -0.762 -0.762 v 0.762 0.762 h -0.762 -0.762 v 0.762 0.762 h -0.762 -0.762 v -0.762 -0.762 h -1.524 -1.524 v 1.52209 1.52209 l -1.54516,0.0231 -1.54517,0.0231 -0.0245,0.74083 -0.0245,0.74084 h -0.75871 -0.7587 v -0.71649 -0.71649 l 0.78316,-0.0243 0.78317,-0.0243 0.0243,-0.78317 0.0243,-0.78316 h 0.76212 0.76212 l -0.0245,-0.74084 -0.0245,-0.74083 h -0.762 -0.762 l -0.0245,0.74083 -0.0245,0.74084 h -0.75871 -0.7587 v -1.524 -1.524 h -1.524 -1.524 v 0.762 0.762 h 0.762 0.762 v 0.762 0.762 h -1.524 -1.524 v -0.762 -0.762 h -0.762 -0.762 v -0.762 -0.762 h 0.762 0.762 v -0.762 -0.762 h -1.524 -1.524 v 1.524 1.524 h 0.762 0.762 v 0.762 0.762 h -2.286 -2.286 v -0.762 -0.762 h -0.762 -0.762 v 0.762 0.762 h -0.762 -0.762 v 0.762 0.762 h -0.762 -0.762 v 0.7587 0.7587 l -0.74084,0.0245 -0.74083,0.0245 v 0.762 0.762 h 0.762 0.762 l 0.0244,-0.73746 0.0244,-0.73746 0.69525,-0.0245 0.69525,-0.0245 0.0245,-0.74083 0.0245,-0.74084 h 1.5207 1.52071 v 0.71967 0.71967 h -0.762 -0.762 v 0.762 0.762 h -0.762 -0.762 v 0.80433 0.80433 h 1.524 1.524 z m 1.524,-2.32833 v -0.71967 h 1.524 1.524 v 0.71967 0.71966 h -1.524 -1.524 z m 13.80066,0.003 v -0.71637 l 0.74084,-0.0245 0.74083,-0.0245 0.0243,-0.78317 0.0243,-0.78317 h 0.75882 0.75882 v 0.762 0.762 h -0.762 -0.762 v 0.762 0.762 h -0.762 -0.762 z m 3.048,-0.003 v -0.71967 h 1.524 1.524 v -0.80433 -0.80434 h 0.762 0.762 v -1.524 -1.524 h 0.762 0.762 v -0.762 -0.762 h 0.762 0.762 v 1.524 1.524 h 0.762 0.762 v 0.762 0.762 h 0.762 0.762 v 1.524 1.524 h -0.762 -0.762 v -0.762 -0.762 h -0.762 -0.762 v -1.524 -1.524 h -0.762 -0.762 v 1.524 1.524 h -0.762 -0.762 v 0.762 0.762 h -2.286 -2.286 z m -13.80066,-1.56634 v -0.762 h 0.762 0.762 v 0.762 0.762 h -0.762 -0.762 z m 30.64933,-1.52729 v -0.7653 l 0.74083,0.0245 0.74084,0.0245 0.0245,0.74083 0.0245,0.74084 h -0.76529 -0.7653 z m -20.701,6.14163 v -0.762 l -0.74083,-0.0245 -0.74084,-0.0245 v 0.81092 0.81093 l 0.74084,-0.0245 0.74083,-0.0245 z m 19.13467,-0.762 v -1.524 h -0.762 -0.762 l -0.0231,1.54836 -0.0231,1.54837 0.78509,-0.0244 0.78509,-0.0244 z m 4.59634,0.78316 -0.0243,-0.78316 -0.74084,-0.0245 -0.74083,-0.0245 v 0.80763 0.80762 h 0.76518 0.76518 z m 7.63799,-0.0212 v -0.80433 h -0.762 -0.762 v -0.71967 -0.71966 h 0.762 0.762 v -0.80434 -0.80433 h -0.762 -0.762 v 0.762 0.762 h -0.762 -0.762 v 0.762 0.762 h -0.762 -0.762 v 0.80433 0.80434 h 2.286 2.286 z m -6.13833,-3.048 v -0.762 l -1.50284,-0.0231 -1.50283,-0.0231 v 0.80824 0.80824 l 1.50283,-0.0231 1.50284,-0.0231 z m 3.07107,-2.30716 0.0231,-1.54517 h -0.76391 -0.76391 v 1.56963 1.56963 l 0.74083,-0.0245 0.74084,-0.0245 z m -24.44941,-4.59317 v -1.524 h -0.762 -0.762 v 0.762 0.762 h -1.524 -1.524 v -0.762 -0.762 h 0.762 0.762 v -0.762 -0.762 h -0.762 -0.762 v 0.762 0.762 h -0.80433 -0.80433 v 1.524 1.524 h 3.09033 3.09033 z m -7.70466,-0.762 v -0.762 h -0.762 -0.762 v 0.762 0.762 h 0.762 0.762 z m 20.74333,-0.71967 v -0.80433 h -0.762 -0.762 v 0.80433 0.80434 h 0.762 0.762 z"
       id="path3"
       inkscape:export-filename="..\Downloads\path3.svg"
       inkscape:export-xdpi="96"
       inkscape:export-ydpi="96" /></g></svg>
